<svg height="100%" width="100%" viewBox="0 0 112 51" fill="none" xmlns="http://www.w3.org/2000/svg">
<path d="M108.522 49.599H101.062V49.6181H108.522V49.599Z" fill="#D90030"/>
<path d="M108.522 28.1726H101.062V44.1729H108.522V28.1726Z" fill="#464DEB"/>
<path d="M108.522 22.1534H101.062V25.0243H108.522V22.1534Z" fill="#464DEB"/>
<path d="M108.522 25.0244H101.062V28.1728H108.522V25.0244Z" fill="#464DEB"/>
<path d="M101.063 16.7372H97.8945V22.1535H101.063V16.7372Z" fill="#464DEB"/>
<path d="M111.691 16.7372H108.522V22.1535H111.691V16.7372Z" fill="#464DEB"/>
<path d="M108.522 16.7372H101.062V22.1535H108.522V16.7372Z" fill="#464DEB"/>
<path d="M111.691 44.1826H108.522V49.599H111.691V44.1826Z" fill="#464DEB"/>
<path d="M98.2305 44.1826L99.8721 49.599H101.063V44.1826H98.2305Z" fill="#464DEB"/>
<path d="M108.522 44.1826H101.062V49.599H108.522V44.1826Z" fill="#464DEB"/>
<path d="M15.2453 36.412L12.2596 35.2063C10.2147 34.3929 8.67866 33.8761 8.67866 32.4407C8.67866 31.1009 9.8403 30.3449 11.674 30.3449C13.5268 30.3449 14.9957 30.9957 16.5413 32.1727L19.2198 28.8425C17.2037 26.8425 14.3812 25.7803 11.674 25.7803C6.797 25.7803 3.32169 28.8712 3.32169 32.7469C3.32169 36.1441 5.62576 38.1346 8.05464 39.1202L11.0979 40.4121C13.1428 41.2542 14.4772 41.7231 14.4772 43.1969C14.4772 44.5844 13.3924 45.4553 11.1843 45.4553C9.25468 45.4553 7.09461 44.46 5.42416 43.015L2.38086 46.6419C4.77134 48.8716 8.01624 50.0199 11.0691 50.0199C16.6565 50.0199 19.9014 46.661 19.9014 42.7758C19.8918 39.4647 18.1062 37.5604 15.2453 36.412Z" fill="#FCFCFC"/>
<path d="M34.2255 36.5939C33.7551 37.9719 33.3615 39.4743 32.8911 40.9098H32.7375C32.2671 39.4743 31.8543 37.9719 31.3838 36.5939L27.5821 26.2109H21.8027V49.5893H26.5549V41.015C26.5549 38.7375 26.1229 35.3307 25.8733 33.0723H26.0173L27.8893 38.6035L31.211 47.5606H34.1583L37.4704 38.6035L39.3905 33.0723H39.5345C39.2849 35.3307 38.8529 38.7375 38.8529 41.015V49.5893H43.6818V26.2109H37.9024L34.2255 36.5939Z" fill="#FCFCFC"/>
<path d="M50.6802 45.1491V39.771H58.6773V35.3307H50.6802V30.6416H57.8229L56.4788 26.2109H45.3809V49.5797H63.5638L62.2198 45.1491H50.6802Z" fill="#FCFCFC"/>
<path d="M62.249 19.6271L65.4747 32.058C66.3003 35.0915 66.9148 37.9432 67.6828 40.9385C68.0188 39.6562 68.3356 38.3834 68.6332 37.1298C68.23 35.4552 67.8364 33.7901 67.366 32.058L63.9579 18.9094C63.6219 19.053 63.2475 19.2061 62.825 19.3879C62.6426 19.4645 62.4506 19.541 62.249 19.6271Z" fill="#343AD6"/>
<path d="M62.2493 19.6272C60.8092 20.2109 59.0427 20.9095 56.9883 21.6464L58.3707 26.2206H60.07V30.6513H59.7148L64.1117 45.1587H66.5694L67.1838 42.7472L67.2222 42.6037H67.2606C67.4142 42.0391 67.5582 41.4936 67.6926 40.9481C66.9246 37.9529 66.3102 35.1011 65.4846 32.0676L62.2493 19.6272Z" fill="#343AD6"/>
<path d="M64.1104 45.149L65.4448 49.551L66.568 45.149H64.1104Z" fill="#343AD6"/>
<path d="M60.0694 26.2109H58.3701L59.7142 30.6416H60.0694V26.2109Z" fill="#343AD6"/>
<path d="M73.7879 16.7372L69.8902 32.058C69.439 33.7901 69.0358 35.4648 68.6326 37.1299C69.0646 38.9194 69.487 40.7185 70.0054 42.5941H70.1014H70.1782L70.1398 42.7376L68.3926 49.6086H68.959H71.4551L81.4106 16.7372H73.7879Z" fill="#464DEB"/>
<path d="M65.4452 49.5798L65.4355 49.6181H65.4644L65.4548 49.5798H65.4452Z" fill="#464DEB"/>
<path d="M65.4443 49.5797H65.454L65.4443 49.551V49.5797Z" fill="#464DEB"/>
<path d="M70.1011 42.6036H70.0051C69.4866 40.728 69.0642 38.9289 68.6322 37.1394C68.325 38.393 68.0178 39.6562 67.6818 40.9481C67.8258 41.5031 67.9602 42.0486 68.1138 42.6036H68.2098L68.2482 42.7472L67.1346 47.1109V49.5798H66.5106L66.501 49.6085H68.3922L70.1394 42.7376L70.1011 42.6036Z" fill="#464DEB"/>
<path d="M67.1444 49.5798V47.1108L66.5107 49.5798H67.1444Z" fill="#464DEB"/>
<path d="M67.2114 42.6036L67.173 42.7471L66.5586 45.1587H67.1346V47.1204L68.2482 42.7567L68.2098 42.6132H68.1138C67.9602 42.0486 67.8258 41.5031 67.6818 40.9576C67.5378 41.5127 67.4034 42.0581 67.2498 42.6132H67.2114V42.6036Z" fill="#464DEB"/>
<path d="M65.4541 49.5798L65.4637 49.6181H66.5005L66.5101 49.5798H65.4541Z" fill="#464DEB"/>
<path d="M66.5676 45.149L65.4443 49.551L65.4539 49.5798H66.51L67.1436 47.1108V45.149H66.5676Z" fill="#464DEB"/>
<path d="M70.1784 42.6036H70.1016L70.14 42.7472L70.1784 42.6036Z" fill="#D90030"/>
<path d="M97.8938 44.1825H98.2299L89.9256 16.8041L88.1975 23.6176L88.1591 23.7611H88.1303C87.6119 25.6368 87.1703 27.4358 86.7383 29.2253C87.1415 30.9 87.5351 32.5651 88.0055 34.2972L89.052 38.3356H92.8633V44.4983H90.6456L91.9704 49.6085H99.8619L99.8523 49.5893H97.8746V44.1825H97.8938Z" fill="#343AD6"/>
<path d="M97.8945 44.1826V49.599H99.8722L98.2305 44.1826H97.8945Z" fill="#343AD6"/>
<path d="M85.2799 23.7517H85.2031L85.2415 23.6081L86.9887 16.7372H86.4223H83.9262L73.9707 49.6181H81.5934L85.4815 34.2973C85.9327 32.5652 86.3359 30.8905 86.7391 29.2254C86.3071 27.4359 85.8847 25.6369 85.3663 23.7612H85.2799V23.7517Z" fill="#464DEB"/>
<path d="M89.9448 16.7372H89.916L89.9352 16.7946L89.9448 16.7372Z" fill="#D90030"/>
<path d="M88.1693 23.7517L88.2077 23.6081L89.9358 16.7946L89.9166 16.7372H86.9885L85.2412 23.6081L85.2796 23.7517H85.3756C85.894 25.6273 86.3164 27.4264 86.7485 29.2159C87.1805 27.4264 87.6221 25.6273 88.1405 23.7517H88.1693Z" fill="#464DEB"/>
<path d="M85.279 23.7516L85.2406 23.608L85.2021 23.7516H85.279Z" fill="#464DEB"/>
<path d="M47.3205 17.6462C61.8266 13.2251 73.3374 5.00487 79.4048 0.803842C79.4336 0.755994 79.4432 0.736855 79.4432 0.736855C79.4432 0.736855 73.4334 0.650729 67.4236 0.574173C64.4379 0.516755 61.4906 0.41149 59.3209 0.267947C57.1513 0.133974 55.74 0 55.74 0L58.3801 4.73692C58.3801 4.73692 57.5545 5.33024 56.0952 6.32547C54.636 7.31113 52.5527 8.70828 49.9894 10.2203C47.4453 11.7227 44.3924 13.3208 40.9747 14.6988C37.5666 16.0577 33.7841 17.2156 29.896 17.7993C25.9982 18.3927 22.0237 18.4309 18.2988 17.8472C16.4363 17.5505 14.6603 17.1199 12.9898 16.6032C11.3194 16.0768 9.79292 15.4165 8.39127 14.7562C5.62639 13.3687 3.50472 11.7992 2.11267 10.5839C1.76706 10.2777 1.45025 10.0097 1.19104 9.76093C0.931833 9.50256 0.720626 9.29203 0.547821 9.1102C0.50942 9.07193 0.471018 9.03365 0.432617 8.99537C11.185 23.1104 30.6256 22.7372 47.3205 17.6462Z" fill="#464DEB"/>
<path d="M55.4994 16.7371H61.4996H63.3908L63.6116 17.608C64.6293 17.1773 65.1861 16.9285 65.1861 16.9285L67.8262 21.6559C67.8262 21.6559 68.6614 20.3353 69.8326 18.3639C71.0039 16.3926 72.4823 13.761 73.8936 11.1485C76.4856 6.29675 79.0681 1.43542 79.4041 0.803833C73.3367 5.00486 61.826 13.2347 47.3199 17.6462C30.625 22.7372 11.1844 23.1104 0.432014 8.99536C0.153605 8.71784 0 8.55516 0 8.55516C0 8.55516 0.144005 8.77526 0.422413 9.19632C0.556818 9.40685 0.729623 9.66523 0.93123 9.97145C1.14244 10.2681 1.39204 10.603 1.68005 10.9763C2.81289 12.4691 4.62735 14.517 7.21943 16.5744C8.52507 17.5697 10.0035 18.6032 11.674 19.541C13.3444 20.4692 15.1781 21.3496 17.1461 22.0961C21.0919 23.5985 25.6136 24.5076 30.1642 24.766C34.7243 25.0339 39.3133 24.632 43.5278 23.8951C47.7423 23.1487 51.592 22.0578 54.8082 20.9764C54.837 20.9669 54.8658 20.9573 54.9042 20.9477L53.6273 16.7371H55.4994Z" fill="#343AD6"/>
<path d="M53.6074 16.7372L54.8843 20.9478C55.4795 20.7468 56.0459 20.5459 56.5931 20.3545L55.4987 16.7372H53.6074Z" fill="#343AD6"/>
<path d="M61.5 16.7372L61.9128 18.3162C62.076 18.2492 62.2392 18.1822 62.3928 18.1248C62.8537 17.9334 63.2665 17.7611 63.6217 17.608L63.4009 16.7372H61.5Z" fill="#343AD6"/>
<path d="M61.4992 16.7372H55.499L56.5935 20.3545C58.7247 19.5985 60.52 18.8808 61.912 18.3162L61.4992 16.7372Z" fill="#343AD6"/>
<path d="M85.9038 38.3356L84.6846 44.4984H90.6656L89.0623 38.3356H85.9038Z" fill="#343AD6"/>
<path d="M92.8729 38.3356H89.0615L90.6648 44.4984H92.8729V38.3356Z" fill="#343AD6"/>
</svg>
