<svg width="768" height="775" viewBox="0 0 768 775" fill="none" xmlns="http://www.w3.org/2000/svg">
<path d="M749.738 126H408.262C398.156 126 390 116.972 390 105.785V20.215C390 9.02804 398.156 0 408.262 0H749.738C759.844 0 768 9.02804 768 20.215V105.589C768 116.972 759.844 126 749.738 126Z" fill="white"/>
<path opacity="0.2" d="M460.874 106.106V99.221C441.536 98.8385 425.837 82.9654 425.837 63.4587H418.944C418.944 86.7903 437.707 105.723 460.874 106.106Z" fill="#464DEB"/>
<path d="M461.64 20.8115C438.09 20.8115 418.944 39.9357 418.944 63.4585H425.837C425.837 43.7606 441.919 27.6962 461.64 27.6962C481.36 27.6962 497.442 43.7606 497.442 63.4585C497.442 83.1564 481.36 99.2208 461.64 99.2208C461.448 99.2208 461.065 99.2208 460.874 99.2208V106.105C461.065 106.105 461.448 106.105 461.64 106.105C485.189 106.105 504.335 86.9813 504.335 63.4585C504.335 39.9357 485.189 20.8115 461.64 20.8115Z" fill="#464DEB"/>
<path d="M719.343 32.668H529.799V39.3614H719.343V32.668Z" fill="#464DEB"/>
<path d="M651.567 56.7651H529.799V63.4587H651.567V56.7651Z" fill="#464DEB"/>
<path d="M651.567 80.8611H529.799V87.5546H651.567V80.8611Z" fill="#464DEB"/>
<g filter="url(#filter0_d)">
<g filter="url(#filter1_d)">
<rect x="390" y="176" width="330" height="300" rx="30" fill="white"/>
</g>
<path d="M632.5 345.426C632.5 388.849 597.298 424.051 553.875 424.051C510.452 424.051 475.25 388.849 475.25 345.426C475.25 302.002 510.452 266.801 553.875 266.801C597.298 266.801 632.5 302.002 632.5 345.426ZM498.838 345.426C498.838 375.822 523.479 400.463 553.875 400.463C584.271 400.463 608.913 375.822 608.913 345.426C608.913 315.029 584.271 290.388 553.875 290.388C523.479 290.388 498.838 315.029 498.838 345.426Z" fill="#EFF3FE"/>
<path d="M553.5 270C553.5 264.477 557.992 259.94 563.477 260.584C575.737 262.025 587.581 266.108 598.174 272.599C611.618 280.838 622.522 292.634 629.681 306.684C636.84 320.733 639.973 336.489 638.736 352.208C637.499 367.928 631.939 382.999 622.671 395.756C613.403 408.512 600.787 418.458 586.219 424.492C571.652 430.526 555.699 432.414 540.125 429.947C524.551 427.481 509.962 420.755 497.972 410.515C488.526 402.447 480.982 392.444 475.823 381.23C473.515 376.212 476.443 370.537 481.695 368.831L495.2 364.443C500.453 362.736 506.014 365.68 508.705 370.503C511.658 375.792 515.537 380.541 520.183 384.509C527.377 390.653 536.13 394.688 545.475 396.168C554.819 397.648 564.391 396.516 573.132 392.895C581.872 389.275 589.442 383.307 595.002 375.653C600.563 367.999 603.899 358.957 604.642 349.525C605.384 340.093 603.504 330.64 599.209 322.21C594.913 313.781 588.371 306.703 580.304 301.76C575.094 298.567 569.38 296.345 563.437 295.172C558.019 294.102 553.5 289.723 553.5 284.2V270Z" fill="#5236FF"/>
<path d="M520.666 338.002C524.734 335.182 526.768 332.842 526.768 330.982C526.768 330.418 526.63 329.974 526.354 329.65C526.09 329.326 525.67 329.164 525.094 329.164C523.906 329.164 523.276 329.974 523.204 331.594H520.738C520.81 330.094 521.266 328.96 522.106 328.192C522.946 327.412 524.008 327.022 525.292 327.022C526.6 327.022 527.602 327.364 528.298 328.048C529.006 328.72 529.36 329.62 529.36 330.748C529.36 331.636 529.096 332.53 528.568 333.43C528.052 334.318 527.392 335.14 526.588 335.896C525.784 336.64 524.938 337.282 524.05 337.822H529.612V339.892H520.666V338.002ZM535.613 326.806C536.477 326.806 537.215 326.956 537.827 327.256C538.451 327.556 538.919 327.97 539.231 328.498C539.555 329.026 539.717 329.614 539.717 330.262C539.717 331.078 539.495 331.75 539.051 332.278C538.607 332.794 538.019 333.112 537.287 333.232V333.322C539.063 333.85 539.951 334.894 539.951 336.454C539.951 337.546 539.585 338.434 538.853 339.118C538.121 339.79 537.089 340.126 535.757 340.126C534.341 340.126 533.213 339.778 532.373 339.082C531.533 338.374 531.065 337.312 530.969 335.896H533.453C533.513 336.544 533.723 337.06 534.083 337.444C534.455 337.816 534.977 338.002 535.649 338.002C536.225 338.002 536.675 337.846 536.999 337.534C537.323 337.21 537.485 336.79 537.485 336.274C537.485 335.662 537.251 335.194 536.783 334.87C536.315 334.546 535.625 334.384 534.713 334.384H534.191V332.314H534.713C536.393 332.338 537.233 331.756 537.233 330.568C537.233 330.052 537.083 329.65 536.783 329.362C536.483 329.062 536.075 328.912 535.559 328.912C535.019 328.912 534.575 329.086 534.227 329.434C533.879 329.77 533.681 330.244 533.633 330.856H531.149C531.221 329.56 531.641 328.564 532.409 327.868C533.177 327.16 534.245 326.806 535.613 326.806ZM562.711 327.292L559.597 340H556.465L554.089 330.784L551.695 340H548.581L545.467 327.292H548.221L550.165 337.138L552.685 327.292H555.475L558.013 337.138L559.957 327.292H562.711ZM564.159 327.166C564.159 326.758 564.303 326.428 564.591 326.176C564.879 325.912 565.257 325.78 565.725 325.78C566.193 325.78 566.571 325.912 566.859 326.176C567.147 326.428 567.291 326.758 567.291 327.166C567.291 327.562 567.147 327.892 566.859 328.156C566.571 328.408 566.193 328.534 565.725 328.534C565.257 328.534 564.879 328.408 564.591 328.156C564.303 327.892 564.159 327.562 564.159 327.166ZM566.985 330.028V340H564.447V330.028H566.985ZM575.221 329.884C576.373 329.884 577.291 330.262 577.975 331.018C578.659 331.774 579.001 332.836 579.001 334.204V340H576.481V334.492C576.481 333.7 576.277 333.088 575.869 332.656C575.461 332.212 574.903 331.99 574.195 331.99C573.475 331.99 572.899 332.224 572.467 332.692C572.035 333.16 571.819 333.832 571.819 334.708V340H569.281V330.028H571.819V332.026C572.083 331.354 572.515 330.832 573.115 330.46C573.727 330.076 574.429 329.884 575.221 329.884ZM584.672 329.902C585.884 329.902 586.856 330.208 587.588 330.82C588.32 331.432 588.776 332.248 588.956 333.268H586.58C586.484 332.788 586.268 332.404 585.932 332.116C585.596 331.828 585.158 331.684 584.618 331.684C584.186 331.684 583.85 331.786 583.61 331.99C583.37 332.194 583.25 332.47 583.25 332.818C583.25 333.094 583.346 333.316 583.538 333.484C583.73 333.652 583.97 333.784 584.258 333.88C584.546 333.976 584.96 334.09 585.5 334.222C586.256 334.39 586.868 334.57 587.336 334.762C587.816 334.942 588.224 335.236 588.56 335.644C588.908 336.04 589.082 336.58 589.082 337.264C589.082 338.116 588.746 338.806 588.074 339.334C587.414 339.862 586.52 340.126 585.392 340.126C584.096 340.126 583.058 339.838 582.278 339.262C581.498 338.674 581.024 337.84 580.856 336.76H583.286C583.346 337.252 583.562 337.642 583.934 337.93C584.306 338.206 584.792 338.344 585.392 338.344C585.824 338.344 586.154 338.242 586.382 338.038C586.61 337.822 586.724 337.546 586.724 337.21C586.724 336.922 586.622 336.688 586.418 336.508C586.226 336.328 585.98 336.19 585.68 336.094C585.392 335.998 584.978 335.884 584.438 335.752C583.694 335.584 583.088 335.416 582.62 335.248C582.164 335.068 581.768 334.786 581.432 334.402C581.108 334.018 580.946 333.49 580.946 332.818C580.946 331.954 581.276 331.252 581.936 330.712C582.596 330.172 583.508 329.902 584.672 329.902Z" fill="#121212"/>
<path d="M540.535 359.104C540.535 357.548 540.826 356.159 541.409 354.936C542.001 353.713 542.778 352.729 543.742 351.984H544.824V352.093C542.677 353.834 541.604 356.171 541.604 359.104C541.604 362.044 542.677 364.385 544.824 366.126V366.236H543.742C542.778 365.482 542.001 364.498 541.409 363.283C540.826 362.068 540.535 360.675 540.535 359.104ZM550.435 356.236L547.191 364H546.024L549.317 356.345H544.821V355.386H550.435V356.236ZM557.261 356.309H552.863V359.176C553.065 358.901 553.357 358.682 553.738 358.52C554.118 358.358 554.536 358.277 554.989 358.277C555.597 358.277 556.099 358.407 556.496 358.666C556.901 358.917 557.196 359.253 557.383 359.675C557.577 360.088 557.674 360.549 557.674 361.06C557.674 361.943 557.427 362.664 556.933 363.222C556.439 363.781 555.714 364.061 554.758 364.061C553.9 364.061 553.199 363.83 552.656 363.368C552.114 362.898 551.81 362.271 551.745 361.485H552.839C552.928 361.987 553.134 362.38 553.458 362.663C553.79 362.939 554.207 363.077 554.71 363.077C555.333 363.077 555.803 362.89 556.119 362.518C556.435 362.145 556.593 361.655 556.593 361.048C556.593 360.456 556.431 359.995 556.107 359.662C555.783 359.33 555.325 359.164 554.734 359.164C554.313 359.164 553.944 359.257 553.628 359.444C553.312 359.622 553.073 359.865 552.911 360.173H551.842V355.325H557.261V356.309ZM560.459 355.313C560.969 355.313 561.391 355.479 561.723 355.811C562.063 356.135 562.233 356.568 562.233 357.111C562.233 357.654 562.067 358.087 561.735 358.411C561.403 358.735 560.978 358.897 560.459 358.897C559.941 358.897 559.516 358.735 559.183 358.411C558.851 358.087 558.685 357.654 558.685 357.111C558.685 356.568 558.851 356.135 559.183 355.811C559.516 355.479 559.941 355.313 560.459 355.313ZM565.295 355.422L560.374 364H559.281L564.201 355.422H565.295ZM559.463 357.111C559.463 357.435 559.552 357.698 559.73 357.901C559.916 358.103 560.155 358.204 560.447 358.204C560.747 358.204 560.99 358.103 561.176 357.901C561.362 357.698 561.455 357.435 561.455 357.111C561.455 356.787 561.362 356.524 561.176 356.321C560.99 356.119 560.747 356.017 560.447 356.017C560.155 356.017 559.916 356.119 559.73 356.321C559.552 356.524 559.463 356.787 559.463 357.111ZM564.128 360.525C564.647 360.525 565.068 360.687 565.392 361.011C565.724 361.335 565.89 361.768 565.89 362.311C565.89 362.854 565.724 363.291 565.392 363.623C565.068 363.947 564.647 364.109 564.128 364.109C563.618 364.109 563.193 363.947 562.853 363.623C562.521 363.291 562.355 362.854 562.355 362.311C562.355 361.768 562.521 361.335 562.853 361.011C563.185 360.687 563.61 360.525 564.128 360.525ZM563.132 362.311C563.132 362.635 563.221 362.898 563.399 363.101C563.586 363.303 563.829 363.405 564.128 363.405C564.42 363.405 564.655 363.303 564.833 363.101C565.019 362.898 565.113 362.635 565.113 362.311C565.113 361.987 565.019 361.724 564.833 361.521C564.655 361.319 564.42 361.218 564.128 361.218C563.829 361.218 563.586 361.319 563.399 361.521C563.221 361.724 563.132 361.987 563.132 362.311ZM570.424 359.104C570.424 360.667 570.129 362.06 569.537 363.283C568.954 364.498 568.181 365.482 567.217 366.236H566.135V366.126C568.274 364.377 569.343 362.036 569.343 359.104C569.343 357.67 569.076 356.366 568.541 355.191C568.015 354.009 567.213 352.976 566.135 352.093V351.984H567.217C568.181 352.729 568.954 353.713 569.537 354.936C570.129 356.159 570.424 357.548 570.424 359.104Z" fill="#BACCFD"/>
<path d="M505.438 214.141V212.705H499.637V214.473H503.279V214.717C503.25 216.855 501.668 218.32 499.383 218.32C496.697 218.32 495.027 216.24 495.027 212.871C495.027 209.561 496.648 207.588 499.344 207.588C501.18 207.588 502.557 208.594 503.084 210.342H505.33C504.842 207.529 502.469 205.674 499.334 205.674C495.32 205.674 492.791 208.447 492.791 212.891C492.791 217.412 495.33 220.234 499.363 220.234C503.182 220.234 505.438 217.959 505.438 214.141ZM507.9 220H510.01V205.908H507.9V220ZM517.092 220.195C520.031 220.195 521.965 218.174 521.965 214.863C521.965 211.562 520.021 209.541 517.092 209.541C514.162 209.541 512.219 211.562 512.219 214.863C512.219 218.174 514.152 220.195 517.092 220.195ZM517.092 218.457C515.441 218.457 514.367 217.148 514.367 214.863C514.367 212.588 515.441 211.279 517.092 211.279C518.742 211.279 519.816 212.588 519.816 214.863C519.816 217.148 518.752 218.457 517.092 218.457ZM529.564 220.176C532.172 220.176 533.852 218.125 533.852 214.863C533.852 211.611 532.162 209.561 529.574 209.561C528.119 209.561 526.947 210.283 526.332 211.475H526.283V205.908H524.174V220H526.225V218.252H526.264C526.898 219.443 528.061 220.176 529.564 220.176ZM528.998 211.338C530.658 211.338 531.684 212.705 531.684 214.863C531.684 217.041 530.658 218.389 528.998 218.389C527.396 218.389 526.273 217.002 526.273 214.863C526.273 212.744 527.396 211.338 528.998 211.338ZM539.596 218.506C538.463 218.506 537.721 217.92 537.721 217.021C537.721 216.143 538.434 215.586 539.693 215.498L542.223 215.342V216.152C542.223 217.49 541.07 218.506 539.596 218.506ZM539.01 220.176C540.357 220.176 541.656 219.453 542.252 218.311H542.301V220H544.322V212.92C544.322 210.859 542.73 209.541 540.24 209.541C537.701 209.541 536.119 210.908 536.002 212.764H537.994C538.18 211.846 538.941 211.26 540.162 211.26C541.451 211.26 542.223 211.943 542.223 213.086V213.877L539.41 214.043C536.969 214.18 535.592 215.283 535.592 217.08C535.592 218.926 536.998 220.176 539.01 220.176ZM546.951 220H549.061V205.908H546.951V220ZM555.91 216.133C556.047 218.643 558.166 220.234 561.35 220.234C564.631 220.234 566.721 218.564 566.721 215.908C566.721 213.857 565.51 212.676 562.561 212.051L561.018 211.729C559.191 211.338 558.469 210.654 558.469 209.629C558.469 208.34 559.68 207.539 561.33 207.539C563.039 207.539 564.201 208.408 564.338 209.824H566.457C566.389 207.363 564.348 205.674 561.359 205.674C558.361 205.674 556.242 207.334 556.242 209.746C556.242 211.777 557.521 213.086 560.344 213.682L561.877 214.004C563.762 214.414 564.504 215.098 564.504 216.191C564.504 217.451 563.225 218.369 561.438 218.369C559.562 218.369 558.234 217.529 558.039 216.133H555.91ZM569.555 207.295V209.727H568.061V211.396H569.555V217.295C569.555 219.277 570.365 220.068 572.445 220.068C572.914 220.068 573.383 220.029 573.617 219.971V218.301C573.48 218.33 573.139 218.35 572.924 218.35C572.064 218.35 571.674 217.949 571.674 217.061V211.396H573.627V209.727H571.674V207.295H569.555ZM579.303 218.506C578.17 218.506 577.428 217.92 577.428 217.021C577.428 216.143 578.141 215.586 579.4 215.498L581.93 215.342V216.152C581.93 217.49 580.777 218.506 579.303 218.506ZM578.717 220.176C580.064 220.176 581.363 219.453 581.959 218.311H582.008V220H584.029V212.92C584.029 210.859 582.438 209.541 579.947 209.541C577.408 209.541 575.826 210.908 575.709 212.764H577.701C577.887 211.846 578.648 211.26 579.869 211.26C581.158 211.26 581.93 211.943 581.93 213.086V213.877L579.117 214.043C576.676 214.18 575.299 215.283 575.299 217.08C575.299 218.926 576.705 220.176 578.717 220.176ZM587.195 207.295V209.727H585.701V211.396H587.195V217.295C587.195 219.277 588.006 220.068 590.086 220.068C590.555 220.068 591.023 220.029 591.258 219.971V218.301C591.121 218.33 590.779 218.35 590.564 218.35C589.705 218.35 589.314 217.949 589.314 217.061V211.396H591.268V209.727H589.314V207.295H587.195ZM593.574 220H595.684V209.727H593.574V220ZM594.629 208.066C595.303 208.066 595.84 207.52 595.84 206.855C595.84 206.182 595.303 205.645 594.629 205.645C593.955 205.645 593.408 206.182 593.408 206.855C593.408 207.52 593.955 208.066 594.629 208.066ZM598.156 212.637C598.156 214.131 599.123 215.068 601.076 215.518L602.746 215.908C603.869 216.162 604.25 216.553 604.25 217.217C604.25 218.057 603.469 218.584 602.199 218.584C600.91 218.584 600.178 218.057 599.982 216.982H597.893C598.088 218.936 599.631 220.195 602.199 220.195C604.621 220.195 606.369 218.906 606.369 217.031C606.369 215.547 605.568 214.727 603.469 214.238L601.799 213.857C600.686 213.604 600.217 213.164 600.217 212.52C600.217 211.699 600.979 211.143 602.121 211.143C603.303 211.143 604.035 211.768 604.152 212.764H606.135C606.066 210.869 604.514 209.541 602.121 209.541C599.758 209.541 598.156 210.801 598.156 212.637ZM609.125 207.295V209.727H607.631V211.396H609.125V217.295C609.125 219.277 609.936 220.068 612.016 220.068C612.484 220.068 612.953 220.029 613.188 219.971V218.301C613.051 218.33 612.709 218.35 612.494 218.35C611.635 218.35 611.244 217.949 611.244 217.061V211.396H613.197V209.727H611.244V207.295H609.125ZM615.504 220H617.613V209.727H615.504V220ZM616.559 208.066C617.232 208.066 617.77 207.52 617.77 206.855C617.77 206.182 617.232 205.645 616.559 205.645C615.885 205.645 615.338 206.182 615.338 206.855C615.338 207.52 615.885 208.066 616.559 208.066ZM629.09 213.262C628.904 211.24 627.293 209.541 624.646 209.541C621.727 209.541 619.812 211.602 619.812 214.863C619.812 218.184 621.727 220.195 624.666 220.195C627.137 220.195 628.885 218.711 629.109 216.523H627.078C626.834 217.715 625.984 218.428 624.686 218.428C623.045 218.428 621.961 217.119 621.961 214.863C621.961 212.656 623.035 211.299 624.666 211.299C626.043 211.299 626.863 212.168 627.078 213.262H629.09Z" fill="#121212"/>
</g>
<g filter="url(#filter2_d)">
<rect x="40" y="100" width="300" height="300" rx="30" fill="white"/>
<rect x="77" y="208" width="3" height="130" rx="1.5" fill="#EFF3FE"/>
<rect x="76" y="268" width="5" height="70" rx="2.5" fill="#5236FF"/>
<path d="M76.0371 358.117C77.6777 358.117 78.625 356.696 78.625 354.47C78.625 352.258 77.6729 350.837 76.0371 350.837C74.4014 350.837 73.4395 352.268 73.4395 354.475C73.4395 356.701 74.3916 358.117 76.0371 358.117ZM76.0371 357.351C74.9336 357.351 74.3232 356.228 74.3232 354.47C74.3232 352.751 74.9482 351.608 76.0371 351.608C77.126 351.608 77.7412 352.741 77.7412 354.475C77.7412 356.232 77.1357 357.351 76.0371 357.351ZM81.835 358H82.6846V350.954H81.8252L79.9502 352.302V353.186L81.8154 351.887H81.835V358Z" fill="#BACCFD"/>
<rect x="97" y="208" width="3" height="130" rx="1.5" fill="#EFF3FE"/>
<rect x="96" y="308" width="5" height="30" rx="2.5" fill="#5236FF"/>
<path d="M95.0371 358.117C96.6777 358.117 97.625 356.696 97.625 354.47C97.625 352.258 96.6729 350.837 95.0371 350.837C93.4014 350.837 92.4395 352.268 92.4395 354.475C92.4395 356.701 93.3916 358.117 95.0371 358.117ZM95.0371 357.351C93.9336 357.351 93.3232 356.228 93.3232 354.47C93.3232 352.751 93.9482 351.608 95.0371 351.608C96.126 351.608 96.7412 352.741 96.7412 354.475C96.7412 356.232 96.1357 357.351 95.0371 357.351ZM98.9941 352.99H99.8438C99.8438 352.199 100.498 351.604 101.367 351.604C102.173 351.604 102.69 352.155 102.69 352.849C102.69 353.435 102.471 353.815 101.519 354.807L99.0381 357.395V358H103.687V357.219H100.244V357.199L101.919 355.48C103.213 354.152 103.569 353.571 103.569 352.795C103.569 351.726 102.671 350.837 101.367 350.837C100.01 350.837 98.9941 351.755 98.9941 352.99Z" fill="#BACCFD"/>
<rect x="118" y="208" width="3" height="130" rx="1.5" fill="#EFF3FE"/>
<rect x="117" y="278" width="5" height="60" rx="2.5" fill="#5236FF"/>
<path d="M116.037 358.117C117.678 358.117 118.625 356.696 118.625 354.47C118.625 352.258 117.673 350.837 116.037 350.837C114.401 350.837 113.439 352.268 113.439 354.475C113.439 356.701 114.392 358.117 116.037 358.117ZM116.037 357.351C114.934 357.351 114.323 356.228 114.323 354.47C114.323 352.751 114.948 351.608 116.037 351.608C117.126 351.608 117.741 352.741 117.741 354.475C117.741 356.232 117.136 357.351 116.037 357.351ZM121.571 354.733H122.455C123.446 354.733 124.066 355.222 124.062 356.091C124.057 356.828 123.437 357.355 122.509 357.355C121.571 357.355 120.912 356.882 120.858 356.135H120.014C120.077 357.302 121.049 358.117 122.509 358.117C123.891 358.117 124.955 357.272 124.955 356.062C124.955 355.061 124.257 354.421 123.231 354.333V354.313C124.115 354.128 124.726 353.527 124.726 352.653C124.726 351.647 123.91 350.837 122.499 350.837C121.181 350.837 120.253 351.604 120.155 352.8H121C121.054 352.038 121.669 351.599 122.499 351.599C123.402 351.599 123.842 352.072 123.842 352.771C123.842 353.474 123.256 353.991 122.416 353.991H121.571V354.733Z" fill="#BACCFD"/>
<rect x="139" y="208" width="3" height="130" rx="1.5" fill="#EFF3FE"/>
<rect x="138" y="278" width="5" height="60" rx="2.5" fill="#5236FF"/>
<path d="M137.037 358.117C138.678 358.117 139.625 356.696 139.625 354.47C139.625 352.258 138.673 350.837 137.037 350.837C135.401 350.837 134.439 352.268 134.439 354.475C134.439 356.701 135.392 358.117 137.037 358.117ZM137.037 357.351C135.934 357.351 135.323 356.228 135.323 354.47C135.323 352.751 135.948 351.608 137.037 351.608C138.126 351.608 138.741 352.741 138.741 354.475C138.741 356.232 138.136 357.351 137.037 357.351ZM144.485 358H145.335V356.535H146.331V355.764H145.335V350.954H144.036C142.371 353.342 141.546 354.626 140.945 355.739V356.535H144.485V358ZM141.814 355.744C142.371 354.768 143.138 353.591 144.471 351.687H144.485V355.764H141.814V355.744Z" fill="#BACCFD"/>
<rect x="160" y="208" width="3" height="130" rx="1.5" fill="#EFF3FE"/>
<rect x="159" y="268" width="5" height="70" rx="2.5" fill="#5236FF"/>
<path d="M158.037 358.117C159.678 358.117 160.625 356.696 160.625 354.47C160.625 352.258 159.673 350.837 158.037 350.837C156.401 350.837 155.439 352.268 155.439 354.475C155.439 356.701 156.392 358.117 158.037 358.117ZM158.037 357.351C156.934 357.351 156.323 356.228 156.323 354.47C156.323 352.751 156.948 351.608 158.037 351.608C159.126 351.608 159.741 352.741 159.741 354.475C159.741 356.232 159.136 357.351 158.037 357.351ZM164.558 358.117C166.027 358.117 167.067 357.126 167.067 355.71C167.067 354.357 166.091 353.376 164.738 353.376C164.055 353.376 163.469 353.63 163.137 354.104H163.117L163.356 351.735H166.667V350.954H162.634L162.272 354.973H163.049C163.376 354.406 163.913 354.133 164.582 354.133C165.52 354.133 166.188 354.802 166.188 355.734C166.188 356.682 165.524 357.346 164.567 357.346C163.723 357.346 163.083 356.828 163.005 356.076H162.141C162.214 357.277 163.21 358.117 164.558 358.117Z" fill="#BACCFD"/>
<rect x="181" y="208" width="3" height="130" rx="1.5" fill="#EFF3FE"/>
<rect x="180" y="283" width="5" height="55" rx="2.5" fill="#5236FF"/>
<path d="M179.037 358.117C180.678 358.117 181.625 356.696 181.625 354.47C181.625 352.258 180.673 350.837 179.037 350.837C177.401 350.837 176.439 352.268 176.439 354.475C176.439 356.701 177.392 358.117 179.037 358.117ZM179.037 357.351C177.934 357.351 177.323 356.228 177.323 354.47C177.323 352.751 177.948 351.608 179.037 351.608C180.126 351.608 180.741 352.741 180.741 354.475C180.741 356.232 180.136 357.351 179.037 357.351ZM185.685 358.122C187.13 358.122 188.18 357.106 188.18 355.715C188.18 354.377 187.184 353.386 185.841 353.386C184.884 353.386 184.161 353.894 183.873 354.528H183.858C183.888 352.653 184.557 351.608 185.733 351.608C186.456 351.608 186.983 351.975 187.188 352.609H188.082C187.862 351.53 186.939 350.832 185.743 350.832C184.02 350.832 183.009 352.224 183.009 354.597C183.009 357.219 184.386 358.122 185.685 358.122ZM185.675 357.341C184.771 357.341 184.068 356.623 184.068 355.72C184.068 354.821 184.757 354.157 185.689 354.157C186.622 354.157 187.286 354.821 187.286 355.744C187.286 356.633 186.573 357.341 185.675 357.341Z" fill="#BACCFD"/>
<rect x="202" y="208" width="3" height="130" rx="1.5" fill="#EFF3FE"/>
<rect x="201" y="253" width="5" height="85" rx="2.5" fill="#5236FF"/>
<path d="M200.037 358.117C201.678 358.117 202.625 356.696 202.625 354.47C202.625 352.258 201.673 350.837 200.037 350.837C198.401 350.837 197.439 352.268 197.439 354.475C197.439 356.701 198.392 358.117 200.037 358.117ZM200.037 357.351C198.934 357.351 198.323 356.228 198.323 354.47C198.323 352.751 198.948 351.608 200.037 351.608C201.126 351.608 201.741 352.741 201.741 354.475C201.741 356.232 201.136 357.351 200.037 357.351ZM204.346 358H205.269L208.403 351.77V350.954H203.74V351.735H207.534V351.755L204.346 358Z" fill="#BACCFD"/>
<rect x="222" y="208" width="3" height="130" rx="1.5" fill="#EFF3FE"/>
<rect x="221" y="278" width="5" height="60" rx="2.5" fill="#5236FF"/>
<path d="M220.037 358.117C221.678 358.117 222.625 356.696 222.625 354.47C222.625 352.258 221.673 350.837 220.037 350.837C218.401 350.837 217.439 352.268 217.439 354.475C217.439 356.701 218.392 358.117 220.037 358.117ZM220.037 357.351C218.934 357.351 218.323 356.228 218.323 354.47C218.323 352.751 218.948 351.608 220.037 351.608C221.126 351.608 221.741 352.741 221.741 354.475C221.741 356.232 221.136 357.351 220.037 357.351ZM226.558 358.117C228.052 358.117 229.116 357.277 229.116 356.096C229.116 355.222 228.511 354.499 227.598 354.284V354.265C228.379 354.016 228.853 353.425 228.853 352.692C228.853 351.618 227.891 350.837 226.558 350.837C225.234 350.837 224.258 351.623 224.258 352.688C224.258 353.43 224.741 354.025 225.518 354.265V354.284C224.609 354.494 224.004 355.217 224.004 356.096C224.004 357.272 225.068 358.117 226.558 358.117ZM226.558 357.351C225.591 357.351 224.897 356.799 224.897 356.032C224.897 355.261 225.591 354.709 226.558 354.709C227.529 354.709 228.218 355.256 228.218 356.032C228.218 356.799 227.529 357.351 226.558 357.351ZM226.558 353.938C225.718 353.938 225.132 353.454 225.132 352.771C225.132 352.082 225.718 351.594 226.558 351.594C227.397 351.594 227.983 352.077 227.983 352.771C227.983 353.454 227.393 353.938 226.558 353.938Z" fill="#BACCFD"/>
<rect x="243" y="208" width="3" height="130" rx="1.5" fill="#EFF3FE"/>
<rect x="242" y="323" width="5" height="15" rx="2.5" fill="#5236FF"/>
<path d="M241.037 358.117C242.678 358.117 243.625 356.696 243.625 354.47C243.625 352.258 242.673 350.837 241.037 350.837C239.401 350.837 238.439 352.268 238.439 354.475C238.439 356.701 239.392 358.117 241.037 358.117ZM241.037 357.351C239.934 357.351 239.323 356.228 239.323 354.47C239.323 352.751 239.948 351.608 241.037 351.608C242.126 351.608 242.741 352.741 242.741 354.475C242.741 356.232 242.136 357.351 241.037 357.351ZM247.377 358.117C249.101 358.117 250.106 356.73 250.106 354.357C250.106 351.687 248.69 350.832 247.431 350.832C245.985 350.832 244.936 351.848 244.936 353.239C244.936 354.577 245.932 355.568 247.274 355.568C248.173 355.568 248.944 355.114 249.242 354.416H249.257C249.232 356.286 248.583 357.351 247.387 357.351C246.654 357.351 246.103 357.014 245.907 356.364H245.014C245.219 357.424 246.161 358.117 247.377 358.117ZM247.426 354.797C246.503 354.797 245.824 354.128 245.824 353.21C245.824 352.326 246.537 351.623 247.44 351.623C248.349 351.623 249.052 352.331 249.052 353.234C249.052 354.133 248.358 354.797 247.426 354.797Z" fill="#BACCFD"/>
<rect x="263" y="208" width="3" height="130" rx="1.5" fill="#EFF3FE"/>
<rect x="262" y="288" width="5" height="50" rx="2.5" fill="#5236FF"/>
<path d="M261.368 358H262.218V350.954H261.358L259.483 352.302V353.186L261.349 351.887H261.368V358ZM266.971 358.117C268.611 358.117 269.559 356.696 269.559 354.47C269.559 352.258 268.606 350.837 266.971 350.837C265.335 350.837 264.373 352.268 264.373 354.475C264.373 356.701 265.325 358.117 266.971 358.117ZM266.971 357.351C265.867 357.351 265.257 356.228 265.257 354.47C265.257 352.751 265.882 351.608 266.971 351.608C268.06 351.608 268.675 352.741 268.675 354.475C268.675 356.232 268.069 357.351 266.971 357.351Z" fill="#BACCFD"/>
<rect x="281" y="208" width="3" height="130" rx="1.5" fill="#EFF3FE"/>
<rect x="280" y="298" width="5" height="40" rx="2.5" fill="#5236FF"/>
<path d="M280.368 358H281.218V350.954H280.358L278.483 352.302V353.186L280.349 351.887H280.368V358ZM285.302 358H286.151V350.954H285.292L283.417 352.302V353.186L285.282 351.887H285.302V358Z" fill="#BACCFD"/>
<rect x="300" y="208" width="3" height="130" rx="1.5" fill="#EFF3FE"/>
<rect x="299" y="298" width="5" height="40" rx="2.5" fill="#5236FF"/>
<path d="M298.368 358H299.218V350.954H298.358L296.483 352.302V353.186L298.349 351.887H298.368V358ZM301.461 352.99H302.311C302.311 352.199 302.965 351.604 303.834 351.604C304.64 351.604 305.157 352.155 305.157 352.849C305.157 353.435 304.938 353.815 303.985 354.807L301.505 357.395V358H306.153V357.219H302.711V357.199L304.386 355.48C305.68 354.152 306.036 353.571 306.036 352.795C306.036 351.726 305.138 350.837 303.834 350.837C302.477 350.837 301.461 351.755 301.461 352.99Z" fill="#BACCFD"/>
<path fill-rule="evenodd" clip-rule="evenodd" d="M77.2057 162.705C77.043 162.868 77.043 163.132 77.2057 163.295L79.8573 165.946C80.0201 166.109 80.2839 166.109 80.4466 165.946C80.6093 165.784 80.6093 165.52 80.4466 165.357L78.5063 163.417L92.5003 163.417C92.7304 163.417 92.917 163.23 92.917 163C92.917 162.77 92.7304 162.583 92.5003 162.583L78.5062 162.583L80.4466 160.643C80.6093 160.48 80.6093 160.216 80.4466 160.054C80.2839 159.891 80.0201 159.891 79.8573 160.054L77.2057 162.705Z" fill="#121212"/>
<path d="M140.001 166.94H134.041L132.961 170H130.521L135.721 156.1H138.341L143.521 170H141.081L140.001 166.94ZM139.361 165.18L137.021 158.58L134.681 165.18H139.361ZM151.874 158.8C153.154 158.8 154.181 159.213 154.954 160.04C155.727 160.867 156.114 162.047 156.114 163.58V170H153.834V163.82C153.834 162.833 153.581 162.073 153.074 161.54C152.567 160.993 151.874 160.72 150.994 160.72C150.087 160.72 149.361 161.013 148.814 161.6C148.267 162.173 147.994 163.02 147.994 164.14V170H145.714V158.98H147.994V161.4C148.287 160.573 148.781 159.933 149.474 159.48C150.167 159.027 150.967 158.8 151.874 158.8ZM163.7 158.84C164.7 158.84 165.554 159.087 166.26 159.58C166.967 160.073 167.467 160.727 167.76 161.54V158.98H170.04V170H167.76V167.44C167.467 168.253 166.967 168.907 166.26 169.4C165.554 169.893 164.7 170.14 163.7 170.14C162.74 170.14 161.88 169.913 161.12 169.46C160.374 169.007 159.787 168.353 159.36 167.5C158.934 166.647 158.72 165.64 158.72 164.48C158.72 163.333 158.934 162.333 159.36 161.48C159.787 160.627 160.374 159.973 161.12 159.52C161.88 159.067 162.74 158.84 163.7 158.84ZM164.4 160.84C163.387 160.84 162.574 161.167 161.96 161.82C161.36 162.46 161.06 163.347 161.06 164.48C161.06 165.613 161.36 166.507 161.96 167.16C162.574 167.8 163.387 168.12 164.4 168.12C165.04 168.12 165.614 167.973 166.12 167.68C166.627 167.373 167.027 166.947 167.32 166.4C167.614 165.853 167.76 165.213 167.76 164.48C167.76 163.76 167.614 163.127 167.32 162.58C167.027 162.02 166.627 161.593 166.12 161.3C165.614 160.993 165.04 160.84 164.4 160.84ZM175.556 155.2V170H173.276V155.2H175.556ZM180.116 158.98L183.416 167.08L186.476 158.98H189.016L182.356 175.24H179.816L182.196 169.74L177.556 158.98H180.116ZM196.555 168.02V170H195.155C193.981 170 193.088 169.72 192.475 169.16C191.875 168.587 191.575 167.64 191.575 166.32V160.92H189.995V158.98H191.575V156.24H193.875V158.98H196.535V160.92H193.875V166.36C193.875 166.987 193.988 167.42 194.215 167.66C194.455 167.9 194.868 168.02 195.455 168.02H196.555ZM198.871 155.78C198.871 155.393 199.004 155.073 199.271 154.82C199.537 154.567 199.891 154.44 200.331 154.44C200.771 154.44 201.124 154.567 201.391 154.82C201.671 155.073 201.811 155.393 201.811 155.78C201.811 156.167 201.671 156.48 201.391 156.72C201.124 156.96 200.771 157.08 200.331 157.08C199.891 157.08 199.537 156.96 199.271 156.72C199.004 156.48 198.871 156.167 198.871 155.78ZM201.471 158.98V170H199.191V158.98H201.471ZM209.63 158.84C211.056 158.84 212.236 159.22 213.17 159.98C214.103 160.727 214.683 161.747 214.91 163.04H212.49C212.356 162.347 212.03 161.807 211.51 161.42C211.003 161.02 210.363 160.82 209.59 160.82C208.71 160.82 207.976 161.133 207.39 161.76C206.803 162.373 206.51 163.28 206.51 164.48C206.51 165.68 206.803 166.593 207.39 167.22C207.976 167.847 208.71 168.16 209.59 168.16C210.363 168.16 211.003 167.96 211.51 167.56C212.03 167.16 212.356 166.613 212.49 165.92H214.91C214.683 167.213 214.103 168.24 213.17 169C212.236 169.76 211.056 170.14 209.63 170.14C208.563 170.14 207.616 169.913 206.79 169.46C205.976 169.007 205.336 168.353 204.87 167.5C204.403 166.647 204.17 165.64 204.17 164.48C204.17 163.333 204.403 162.333 204.87 161.48C205.336 160.627 205.976 159.973 206.79 159.52C207.616 159.067 208.563 158.84 209.63 158.84ZM221.232 158.84C222.526 158.84 223.559 159.173 224.332 159.84C225.119 160.493 225.599 161.373 225.772 162.48H223.612C223.519 161.88 223.259 161.4 222.832 161.04C222.419 160.667 221.866 160.48 221.172 160.48C220.599 160.48 220.152 160.62 219.832 160.9C219.526 161.167 219.372 161.533 219.372 162C219.372 162.347 219.486 162.627 219.712 162.84C219.939 163.053 220.219 163.22 220.552 163.34C220.899 163.46 221.386 163.593 222.012 163.74C222.839 163.927 223.506 164.12 224.012 164.32C224.532 164.52 224.972 164.84 225.332 165.28C225.706 165.707 225.892 166.293 225.892 167.04C225.892 167.96 225.539 168.707 224.832 169.28C224.139 169.853 223.199 170.14 222.012 170.14C220.639 170.14 219.526 169.82 218.672 169.18C217.832 168.54 217.326 167.647 217.152 166.5H219.372C219.439 167.1 219.706 167.587 220.172 167.96C220.639 168.333 221.252 168.52 222.012 168.52C222.559 168.52 222.986 168.38 223.292 168.1C223.612 167.807 223.772 167.44 223.772 167C223.772 166.613 223.652 166.307 223.412 166.08C223.172 165.853 222.872 165.68 222.512 165.56C222.152 165.427 221.659 165.293 221.032 165.16C220.232 164.973 219.579 164.787 219.072 164.6C218.579 164.413 218.152 164.113 217.792 163.7C217.446 163.273 217.272 162.7 217.272 161.98C217.272 161.047 217.619 160.293 218.312 159.72C219.019 159.133 219.992 158.84 221.232 158.84Z" fill="#121212"/>
<path fill-rule="evenodd" clip-rule="evenodd" d="M279.794 162.705C279.957 162.868 279.957 163.132 279.794 163.295L277.143 165.946C276.98 166.109 276.716 166.109 276.553 165.946C276.391 165.784 276.391 165.52 276.553 165.357L278.494 163.417L264.5 163.417C264.27 163.417 264.083 163.23 264.083 163C264.083 162.77 264.27 162.583 264.5 162.583L278.494 162.583L276.553 160.643C276.391 160.48 276.391 160.216 276.553 160.054C276.716 159.891 276.98 159.891 277.143 160.054L279.794 162.705Z" fill="#121212"/>
</g>
<path d="M476.51 769.065L422.263 731.773C417.264 728.266 414.073 721.892 414.073 714.986V631.158C414.073 626.908 411.201 623.508 407.585 623.508H402.479C398.863 623.508 395.991 626.908 395.991 631.158V714.986C395.991 721.892 392.906 728.266 387.8 731.773L333.554 769.065C331.427 770.552 332.277 774.377 334.724 774.377H337.702C345.254 774.377 352.7 772.146 359.294 768.002L400.884 741.76C403.436 740.166 406.627 740.166 409.074 741.76L450.663 768.002C457.364 772.252 464.703 774.377 472.255 774.377H475.233C477.786 774.377 478.637 770.552 476.51 769.065Z" fill="#B9BCE4"/>
<path d="M281.435 498.032C281.435 498.032 255.269 491.232 252.291 510.782C252.291 510.782 253.78 514.182 258.46 508.869C263.14 503.557 264.417 513.757 281.435 513.757V498.032Z" fill="url(#paint0_linear)"/>
<path d="M374.078 519.387H217.082C215.806 519.387 214.742 518.325 214.742 517.05V514.181C214.742 512.906 215.806 511.844 217.082 511.844H374.078C375.355 511.844 376.418 512.906 376.418 514.181V517.05C376.418 518.325 375.355 519.387 374.078 519.387Z" fill="#313667"/>
<path d="M415.137 397.949H396.311V376.806L396.63 376.487C401.948 371.706 409.5 371.706 414.712 376.487L415.031 376.806V397.949H415.137Z" fill="url(#paint1_linear)"/>
<path d="M734.66 529.056H74.3401C73.0637 529.056 72 527.993 72 526.718V521.619C72 520.344 73.0637 519.281 74.3401 519.281H734.66C735.936 519.281 737 520.344 737 521.619V526.718C737 528.1 735.936 529.056 734.66 529.056Z" fill="#B9BCE4"/>
<path d="M555.752 515.563L555.859 515.775C556.497 517.475 555.22 519.388 553.412 519.388H526.395C524.693 519.388 523.204 518.325 522.672 516.731L517.992 502.707L547.987 504.194C551.604 504.407 554.582 507.063 555.114 510.569L555.752 515.563Z" fill="#313667"/>
<path d="M354.295 710.311L358.975 735.81H340.468L331.107 698.624L354.295 710.311Z" fill="url(#paint2_linear)"/>
<path d="M339.192 730.922C339.192 730.922 352.914 732.835 356.849 724.654C356.849 724.654 360.997 729.966 366.422 738.891C367.592 740.909 367.06 743.459 365.146 744.84C359.189 748.984 345.255 758.227 324.301 770.658C321.536 772.252 318.026 770.658 317.6 767.471C316.962 762.052 320.366 751.428 339.192 730.922Z" fill="#3D427B"/>
<path d="M457.577 710.629L452.791 736.128H471.299L480.659 698.942L457.577 710.629Z" fill="url(#paint3_linear)"/>
<path d="M472.575 731.135C472.575 731.135 458.854 733.047 454.918 724.866C454.918 724.866 450.77 730.179 445.345 739.103C444.175 741.122 444.707 743.672 446.622 745.053C452.578 749.196 466.512 758.44 487.466 770.871C490.232 772.464 493.742 770.871 494.167 767.683C494.806 762.371 491.508 751.746 472.575 731.135Z" fill="#3D427B"/>
<path d="M486.188 572.723C485.869 572.298 485.444 571.979 485.125 571.554C442.791 524.593 368.76 524.593 326.427 571.554C326.108 571.979 325.682 572.298 325.363 572.723C316.216 583.135 311.11 596.309 310.897 610.121C310.472 629.777 313.237 663.456 329.618 710.311H354.507C354.507 710.311 343.658 642.739 349.402 620.108H405.882H462.362C468.106 642.739 457.257 710.311 457.257 710.311H482.146C498.421 663.35 501.186 629.67 500.867 610.121C500.441 596.309 495.23 583.028 486.188 572.723Z" fill="#3D427B"/>
<path d="M345.041 601.515C345.041 601.515 354.508 574.529 405.244 574.529C456.087 574.529 466.724 603.959 466.724 603.959L345.041 601.515Z" fill="#313667"/>
<path d="M385.46 352.794L375.356 354.494C369.186 355.557 363.23 351.413 362.166 345.145L360.996 338.239C359.933 332.076 364.081 326.127 370.357 325.064L380.461 323.364L385.46 352.794Z" fill="url(#paint4_linear)"/>
<path d="M427.05 352.794L437.155 354.494C443.324 355.557 449.28 351.413 450.344 345.145L451.514 338.239C452.578 332.076 448.429 326.127 442.154 325.064L432.049 323.364L427.05 352.794Z" fill="url(#paint5_linear)"/>
<path d="M528.203 497.926C528.203 497.926 554.369 491.126 557.347 510.675C557.347 510.675 555.858 514.075 551.178 508.763C546.498 503.451 545.222 513.65 528.203 513.65V497.926Z" fill="url(#paint6_linear)"/>
<path d="M425.242 278.741C425.242 278.741 410.989 287.453 391.524 292.553C377.058 296.272 367.591 311.252 372.697 338.026C377.803 364.8 388.865 378.399 404.819 378.399C420.774 378.399 434.602 369.262 439.708 334.839C444.813 300.415 448.004 298.184 449.28 293.19C451.195 285.753 446.621 281.716 439.495 286.391C430.135 292.553 443.111 270.879 425.242 278.741Z" fill="url(#paint7_linear)"/>
<path d="M511.611 491.02C492.677 481.352 471.404 426.316 458.959 408.786C454.811 402.942 447.472 398.48 439.601 395.186C418.009 386.049 393.438 386.049 371.739 395.186C363.868 398.48 356.529 402.942 352.381 408.786C339.936 426.316 318.663 481.352 299.73 491.02C295.581 493.145 291.433 493.995 288.029 494.207C282.924 494.526 278.988 498.67 278.988 503.769V507.913C278.988 513.331 283.456 517.688 288.88 517.475C304.41 516.838 335.15 510.357 358.763 471.789C358.763 471.789 350.36 517.156 352.062 541.699C352.381 546.055 356.423 549.136 360.677 548.286C371.314 546.161 391.311 542.549 405.67 542.549C420.136 542.549 441.728 547.224 453.109 549.986C457.47 551.049 461.831 547.861 461.938 543.293C463.001 519.175 452.684 476.57 452.684 476.57C476.723 515.988 508.313 519.387 523.417 518.431C528.416 518.112 532.352 513.863 532.352 508.869V503.769C532.352 498.67 528.416 494.526 523.311 494.207C519.907 493.995 515.759 493.145 511.611 491.02Z" fill="url(#paint8_linear)"/>
<path d="M405.776 418.348C405.776 418.348 333.979 417.711 337.17 469.346C340.361 520.981 363.336 524.169 405.776 524.169C448.216 524.169 471.191 520.981 474.382 469.346C477.573 417.711 405.776 418.348 405.776 418.348Z" fill="white"/>
<path d="M457.151 644.014H354.401C344.403 644.014 336.213 635.833 336.213 625.846V614.371C336.213 601.728 351.955 596.203 376.526 596.203H431.091C461.193 596.203 475.446 601.515 475.446 614.371V625.846C475.34 635.939 467.149 644.014 457.151 644.014Z" fill="white"/>
<path d="M444.493 330.589C443.323 330.164 442.579 328.889 442.898 327.614C444.174 322.514 446.514 309.659 439.601 299.884C433.538 291.278 421.731 286.922 404.393 286.922C390.566 286.922 380.461 290.747 374.505 298.29C366.74 308.171 367.91 321.877 368.761 327.189C368.973 328.464 368.123 329.633 366.846 329.952C365.463 330.27 364.081 329.42 363.762 327.933C362.804 321.877 361.528 306.577 370.569 295.103C377.483 286.285 388.864 281.822 404.287 281.822C423.327 281.822 436.516 286.922 443.536 296.909C451.62 308.384 449.067 322.833 447.578 328.677C447.365 330.27 445.876 331.12 444.493 330.589Z" fill="url(#paint9_linear)"/>
<path d="M405.351 508.869C400.777 508.869 397.054 512.588 397.054 517.05C396.842 546.905 396.629 613.096 396.629 613.096C396.629 616.921 399.501 620.108 403.117 620.108H407.159C410.776 620.108 413.647 617.027 413.647 613.096V517.156C413.647 512.588 409.925 508.869 405.351 508.869Z" fill="#B9BCE4"/>
<path d="M523.311 494.313C519.801 494.101 515.759 493.251 511.611 491.126C492.677 481.458 471.404 426.422 458.959 408.892C454.811 403.048 447.472 398.586 439.601 395.292C429.283 390.936 418.328 388.705 407.372 388.493C407.159 388.493 407.053 388.493 406.84 388.493C406.415 388.493 406.096 388.493 405.67 388.493C405.245 388.493 404.926 388.493 404.5 388.493C404.287 388.493 404.181 388.493 403.968 388.493C393.013 388.705 382.057 390.936 371.739 395.292C363.868 398.586 356.529 403.048 352.381 408.892C339.936 426.422 318.663 481.458 299.73 491.126C295.581 493.251 291.433 494.101 288.029 494.313C282.924 494.632 278.988 498.776 278.988 503.875C278.988 503.875 311.43 515.987 344.935 436.941L355.146 418.348C355.146 418.348 368.868 396.674 405.67 395.717C442.473 396.78 456.194 418.348 456.194 418.348L466.405 436.941C499.91 515.987 532.352 503.875 532.352 503.875C532.458 498.776 528.416 494.632 523.311 494.313Z" fill="url(#paint10_linear)"/>
<path d="M100.188 688.424C102.634 691.08 105.08 693.736 107.527 696.393V529.056H100.188V688.424Z" fill="url(#paint11_linear)"/>
<path d="M704.24 529.056H696.9V773.527H704.24V529.056Z" fill="url(#paint12_linear)"/>
<defs>
<filter id="filter0_d" x="350" y="151" width="410" height="380" filterUnits="userSpaceOnUse" color-interpolation-filters="sRGB">
<feFlood flood-opacity="0" result="BackgroundImageFix"/>
<feColorMatrix in="SourceAlpha" type="matrix" values="0 0 0 0 0 0 0 0 0 0 0 0 0 0 0 0 0 0 127 0"/>
<feOffset dy="15"/>
<feGaussianBlur stdDeviation="20"/>
<feColorMatrix type="matrix" values="0 0 0 0 0.870588 0 0 0 0 0.870588 0 0 0 0 0.870588 0 0 0 0.1 0"/>
<feBlend mode="normal" in2="BackgroundImageFix" result="effect1_dropShadow"/>
<feBlend mode="normal" in="SourceGraphic" in2="effect1_dropShadow" result="shape"/>
</filter>
<filter id="filter1_d" x="350" y="151" width="410" height="380" filterUnits="userSpaceOnUse" color-interpolation-filters="sRGB">
<feFlood flood-opacity="0" result="BackgroundImageFix"/>
<feColorMatrix in="SourceAlpha" type="matrix" values="0 0 0 0 0 0 0 0 0 0 0 0 0 0 0 0 0 0 127 0"/>
<feOffset dy="15"/>
<feGaussianBlur stdDeviation="20"/>
<feColorMatrix type="matrix" values="0 0 0 0 0.870588 0 0 0 0 0.870588 0 0 0 0 0.870588 0 0 0 0.1 0"/>
<feBlend mode="normal" in2="BackgroundImageFix" result="effect1_dropShadow"/>
<feBlend mode="normal" in="SourceGraphic" in2="effect1_dropShadow" result="shape"/>
</filter>
<filter id="filter2_d" x="0" y="75" width="380" height="380" filterUnits="userSpaceOnUse" color-interpolation-filters="sRGB">
<feFlood flood-opacity="0" result="BackgroundImageFix"/>
<feColorMatrix in="SourceAlpha" type="matrix" values="0 0 0 0 0 0 0 0 0 0 0 0 0 0 0 0 0 0 127 0"/>
<feOffset dy="15"/>
<feGaussianBlur stdDeviation="20"/>
<feColorMatrix type="matrix" values="0 0 0 0 0.870588 0 0 0 0 0.870588 0 0 0 0 0.870588 0 0 0 0.1 0"/>
<feBlend mode="normal" in2="BackgroundImageFix" result="effect1_dropShadow"/>
<feBlend mode="normal" in="SourceGraphic" in2="effect1_dropShadow" result="shape"/>
</filter>
<linearGradient id="paint0_linear" x1="252.316" y1="505.353" x2="281.451" y2="505.353" gradientUnits="userSpaceOnUse">
<stop stop-color="#FFD7B7"/>
<stop offset="0.356" stop-color="#FFD1B1"/>
<stop offset="0.8428" stop-color="#FFBFA2"/>
<stop offset="1" stop-color="#FFB89B"/>
</linearGradient>
<linearGradient id="paint1_linear" x1="406.483" y1="404.642" x2="405.186" y2="374.14" gradientUnits="userSpaceOnUse">
<stop stop-color="#FFD7B7"/>
<stop offset="0.356" stop-color="#FFD1B1"/>
<stop offset="0.8428" stop-color="#FFBFA2"/>
<stop offset="1" stop-color="#FFB89B"/>
</linearGradient>
<linearGradient id="paint2_linear" x1="337.102" y1="696.913" x2="356.199" y2="745.806" gradientUnits="userSpaceOnUse">
<stop stop-color="#FFD7B7"/>
<stop offset="0.356" stop-color="#FFD1B1"/>
<stop offset="0.8428" stop-color="#FFBFA2"/>
<stop offset="1" stop-color="#FFB89B"/>
</linearGradient>
<linearGradient id="paint3_linear" x1="471.048" y1="695.279" x2="461.032" y2="744.789" gradientUnits="userSpaceOnUse">
<stop stop-color="#FFD7B7"/>
<stop offset="0.356" stop-color="#FFD1B1"/>
<stop offset="0.8428" stop-color="#FFBFA2"/>
<stop offset="1" stop-color="#FFB89B"/>
</linearGradient>
<linearGradient id="paint4_linear" x1="360.817" y1="339.031" x2="385.469" y2="339.031" gradientUnits="userSpaceOnUse">
<stop stop-color="#FF71B8"/>
<stop offset="1" stop-color="#FFB5A8"/>
</linearGradient>
<linearGradient id="paint5_linear" x1="427.088" y1="339.031" x2="451.74" y2="339.031" gradientUnits="userSpaceOnUse">
<stop stop-color="#FF71B8"/>
<stop offset="1" stop-color="#FFB5A8"/>
</linearGradient>
<linearGradient id="paint6_linear" x1="562.3" y1="504.792" x2="518.475" y2="505.431" gradientUnits="userSpaceOnUse">
<stop stop-color="#FFD7B7"/>
<stop offset="0.356" stop-color="#FFD1B1"/>
<stop offset="0.8428" stop-color="#FFBFA2"/>
<stop offset="1" stop-color="#FFB89B"/>
</linearGradient>
<linearGradient id="paint7_linear" x1="407.035" y1="257.117" x2="415.745" y2="386.671" gradientUnits="userSpaceOnUse">
<stop stop-color="#8C7DFF"/>
<stop offset="0.00593132" stop-color="#8B7CFC"/>
<stop offset="0.0992527" stop-color="#8068D7"/>
<stop offset="0.1987" stop-color="#7757B7"/>
<stop offset="0.3071" stop-color="#6F4A9D"/>
<stop offset="0.426" stop-color="#693F89"/>
<stop offset="0.5607" stop-color="#65387B"/>
<stop offset="0.7246" stop-color="#633373"/>
<stop offset="1" stop-color="#623270"/>
</linearGradient>
<linearGradient id="paint8_linear" x1="412.525" y1="370.133" x2="402.225" y2="577.656" gradientUnits="userSpaceOnUse">
<stop stop-color="#8C7DFF"/>
<stop offset="1" stop-color="#68C3C1"/>
</linearGradient>
<linearGradient id="paint9_linear" x1="363.215" y1="306.397" x2="449.341" y2="306.397" gradientUnits="userSpaceOnUse">
<stop stop-color="#FF71B8"/>
<stop offset="1" stop-color="#FFB5A8"/>
</linearGradient>
<linearGradient id="paint10_linear" x1="413.618" y1="356.324" x2="406.107" y2="497.321" gradientUnits="userSpaceOnUse">
<stop stop-color="#8C7DFF"/>
<stop offset="1" stop-color="#68C3C1"/>
</linearGradient>
<linearGradient id="paint11_linear" x1="103.857" y1="529.056" x2="103.857" y2="696.393" gradientUnits="userSpaceOnUse">
<stop stop-color="#B9BCE4"/>
<stop offset="1" stop-color="#F2F7FF" stop-opacity="0"/>
</linearGradient>
<linearGradient id="paint12_linear" x1="700.57" y1="529.056" x2="700.57" y2="773.527" gradientUnits="userSpaceOnUse">
<stop stop-color="#B9BCE4"/>
<stop offset="1" stop-color="#F2F7FF" stop-opacity="0"/>
</linearGradient>
</defs>
</svg>
