<svg viewBox="0 0 684 648" fill="none" xmlns="http://www.w3.org/2000/svg">
<path d="M268.827 0H135.991C132.24 0 129 3.06937 129 6.99135V67.5263C129 71.2777 132.069 74.5176 135.991 74.5176H191.752L203.518 89.694L213.408 74.5176H268.827C272.579 74.5176 275.819 71.4483 275.819 67.5263V6.82084C275.648 3.06938 272.579 0 268.827 0Z" fill="#BACCFD"/>
<path d="M177.428 17.0521V19.2689H175.893V17.0521L173.506 12.9596H175.041L176.746 15.6879L178.451 12.9596H179.815L177.428 17.0521Z" fill="white"/>
<path d="M179.814 16.029C179.814 14.1533 181.349 12.7891 183.225 12.7891C185.271 12.7891 186.635 14.1533 186.635 16.029C186.635 17.9047 185.101 19.2689 183.225 19.2689C181.349 19.4394 179.814 17.9047 179.814 16.029ZM185.271 16.029C185.271 14.8353 184.419 13.9827 183.225 13.9827C182.031 13.9827 181.179 14.8353 181.179 16.029C181.179 17.2226 182.031 18.0752 183.225 18.0752C184.419 18.0752 185.271 17.2226 185.271 16.029Z" fill="white"/>
<path d="M187.83 16.5405V12.9596H189.365V16.37C189.365 17.5637 189.876 18.0752 190.729 18.0752C191.582 18.0752 192.093 17.5637 192.093 16.37V12.9596H193.457V16.5405C193.457 18.4163 192.434 19.4394 190.558 19.4394C188.853 19.4394 187.83 18.4163 187.83 16.5405Z" fill="white"/>
<path d="M199.084 19.2689L197.89 17.5637H196.697V19.2689H195.162V12.9596H197.89C199.596 12.9596 200.619 13.8122 200.619 15.1764C200.619 16.1995 200.107 16.8816 199.255 17.2226L200.619 19.2689H199.084ZM197.72 14.1533H196.526V16.37H197.72C198.573 16.37 199.084 16.029 199.084 15.3469C199.084 14.4943 198.573 14.1533 197.72 14.1533Z" fill="white"/>
<path d="M203.859 16.029C203.859 14.1532 205.394 12.7891 207.27 12.7891C208.293 12.7891 209.316 13.1301 209.828 13.9827L208.804 14.8353C208.463 14.3238 207.781 14.1532 207.27 14.1532C206.076 14.1532 205.224 15.0058 205.224 16.1995C205.224 17.3931 206.076 18.2457 207.27 18.2457C207.952 18.2457 208.463 18.0752 208.804 17.5637L209.828 18.4163C209.316 19.0983 208.293 19.6099 207.27 19.6099C205.224 19.4394 203.859 18.0752 203.859 16.029Z" fill="white"/>
<path d="M210.338 16.029C210.338 14.1533 211.873 12.7891 213.748 12.7891C215.795 12.7891 217.159 14.1533 217.159 16.029C217.159 17.9047 215.624 19.2689 213.748 19.2689C211.873 19.4394 210.338 17.9047 210.338 16.029ZM215.795 16.029C215.795 14.8353 214.942 13.9827 213.748 13.9827C212.555 13.9827 211.702 14.8353 211.702 16.029C211.702 17.2226 212.555 18.0752 213.748 18.0752C214.942 18.0752 215.795 17.2226 215.795 16.029Z" fill="white"/>
<path d="M218.354 12.9596H221.252C223.299 12.9596 224.663 14.1532 224.663 16.1995C224.663 18.0752 223.299 19.4394 221.252 19.4394H218.354V12.9596ZM221.082 18.0752C222.276 18.0752 223.128 17.3931 223.128 16.1995C223.128 15.0058 222.276 14.3238 221.082 14.3238H219.718V18.2458H221.082V18.0752Z" fill="white"/>
<path d="M230.631 18.0752V19.2689H225.686V12.9596H230.46V14.1533H227.22V15.5174H230.119V16.7111H227.22V18.2458H230.631V18.0752Z" fill="white"/>
<path d="M255.867 60.5349H148.951C145.54 60.5349 142.982 57.8066 142.982 54.5667V32.058C142.982 28.6475 145.711 26.0897 148.951 26.0897H255.867C259.278 26.0897 261.836 28.8181 261.836 32.058V54.5667C261.836 57.8066 259.107 60.5349 255.867 60.5349Z" fill="#A6BCF8"/>
<path d="M167.026 47.3586C167.026 50.428 164.639 52.4742 161.399 52.4742C156.965 52.4742 154.578 49.2343 154.578 44.1187C154.578 38.4915 157.647 35.5926 162.081 35.5926C163.445 35.5926 164.809 35.7632 165.833 36.4452L165.321 37.4684C164.468 36.9568 163.275 36.6158 162.081 36.6158C158.33 36.6158 155.772 39.003 155.772 43.9482C155.772 44.4597 155.772 45.1418 155.942 45.9944C156.624 43.7776 158.671 42.584 161.228 42.584C164.809 42.4135 167.026 44.2892 167.026 47.3586ZM165.833 47.3586C165.833 44.9713 164.127 43.4366 161.228 43.4366C158.5 43.4366 156.624 45.1418 156.624 47.3586C156.624 49.4048 158.33 51.2806 161.399 51.2806C163.957 51.2806 165.833 49.7459 165.833 47.3586Z" fill="white"/>
<path d="M189.365 47.6996H185.784V52.3037H184.59V47.6996H175.041V46.847L184.079 35.5926H185.443L176.576 46.6765H184.59V42.584H185.784V46.6765H189.365V47.6996Z" fill="white"/>
<path d="M207.951 47.5291C207.951 50.2574 205.905 52.3037 202.154 52.3037C199.766 52.3037 197.379 51.4511 196.186 50.0869L196.868 49.2343C197.891 50.428 199.937 51.2806 202.154 51.2806C205.223 51.2806 206.758 49.9164 206.758 47.5291C206.758 45.3123 205.223 43.7776 201.813 43.7776H200.79V42.925L205.735 36.6158H196.868V35.5926H207.44V36.4452L202.324 42.925C206.076 42.925 207.951 44.8008 207.951 47.5291Z" fill="white"/>
<path d="M228.243 35.5926V36.4452L221.081 52.3037H219.717L226.879 36.6158H217.5V39.8557H216.307V35.5926H228.243Z" fill="white"/>
<path d="M236.77 43.9482C236.77 38.662 239.498 35.4221 243.42 35.4221C247.342 35.4221 250.07 38.662 250.07 43.9482C250.07 49.2343 247.342 52.4742 243.42 52.4742C239.498 52.4742 236.77 49.2343 236.77 43.9482ZM248.706 43.9482C248.706 39.3441 246.489 36.6158 243.42 36.6158C240.18 36.6158 238.134 39.3441 238.134 43.9482C238.134 48.5522 240.35 51.2806 243.42 51.2806C246.66 51.2806 248.706 48.5522 248.706 43.9482Z" fill="white"/>
<path d="M264.99 282.298H10.9133C4.9451 282.298 0 277.353 0 271.385V139.913C0 133.945 4.9451 129 10.9133 129H264.99C270.958 129 275.903 133.945 275.903 139.913V271.555C275.903 277.524 270.958 282.298 264.99 282.298Z" fill="white"/>
<path d="M96.0027 183.226V185.101H87.9883V174.87H95.8322V176.746H90.3756V178.963H95.1501V180.838H90.3756V183.226H96.0027Z" fill="#B9BCE4"/>
<path d="M107.427 174.87V185.101H105.552L100.436 178.792V185.101H98.0488V174.87H100.095L105.211 181.179V174.87H107.427Z" fill="#B9BCE4"/>
<path d="M112.031 176.746H108.791V174.87H117.829V176.746H114.589V185.101H112.201V176.746H112.031Z" fill="#B9BCE4"/>
<path d="M127.038 183.226V185.101H119.023V174.87H126.867V176.746H121.411V178.963H126.185V180.838H121.411V183.226H127.038Z" fill="#B9BCE4"/>
<path d="M135.394 185.101L133.348 182.203H133.178H131.131V185.101H128.744V174.87H133.178C135.906 174.87 137.611 176.234 137.611 178.622C137.611 180.156 136.759 181.35 135.565 181.862L137.952 185.101H135.394ZM133.178 176.746H131.302V180.327H133.178C134.712 180.327 135.394 179.645 135.394 178.451C135.394 177.428 134.712 176.746 133.178 176.746Z" fill="#B9BCE4"/>
<path d="M143.238 179.986C143.238 176.916 145.626 174.7 148.865 174.7C150.571 174.7 152.105 175.382 153.129 176.575L151.594 177.94C150.912 177.087 150.059 176.746 149.036 176.746C147.16 176.746 145.796 178.11 145.796 179.986C145.796 181.861 147.16 183.226 149.036 183.226C150.059 183.226 150.912 182.885 151.594 182.032L153.129 183.396C152.105 184.59 150.741 185.272 148.865 185.272C145.626 185.272 143.238 183.055 143.238 179.986Z" fill="#B9BCE4"/>
<path d="M153.809 179.986C153.809 176.916 156.196 174.7 159.436 174.7C162.676 174.7 165.063 176.916 165.063 179.986C165.063 183.055 162.676 185.272 159.436 185.272C156.196 185.272 153.809 183.055 153.809 179.986ZM162.676 179.986C162.676 178.11 161.312 176.746 159.436 176.746C157.56 176.746 156.196 178.11 156.196 179.986C156.196 181.861 157.56 183.226 159.436 183.226C161.312 183.226 162.676 181.861 162.676 179.986Z" fill="#B9BCE4"/>
<path d="M166.939 174.87H171.544C174.954 174.87 177.171 176.916 177.171 179.986C177.171 183.055 174.783 185.101 171.544 185.101H166.939V174.87ZM171.373 183.226C173.419 183.226 174.783 182.032 174.783 179.986C174.783 177.94 173.419 176.746 171.373 176.746H169.156V183.055H171.373V183.226Z" fill="#B9BCE4"/>
<path d="M187.061 183.226V185.101H179.047V174.87H186.891V176.746H181.434V178.963H186.209V180.838H181.434V183.226H187.061Z" fill="#B9BCE4"/>
<path d="M56.9538 253.992H31.8872C28.1358 253.992 25.0664 250.922 25.0664 247.171V208.122C25.0664 204.37 28.1358 201.301 31.8872 201.301H56.9538C60.7053 201.301 63.7747 204.37 63.7747 208.122V247.171C63.7747 251.093 60.7053 253.992 56.9538 253.992Z" fill="#F2F7FF"/>
<path d="M105.042 253.992H79.9751C76.2237 253.992 73.1543 250.922 73.1543 247.171V208.122C73.1543 204.37 76.2237 201.301 79.9751 201.301H105.042C108.793 201.301 111.863 204.37 111.863 208.122V247.171C111.863 251.093 108.793 253.992 105.042 253.992Z" fill="#F2F7FF"/>
<path d="M153.128 253.992H128.061C124.31 253.992 121.24 250.922 121.24 247.171V208.122C121.24 204.37 124.31 201.301 128.061 201.301H153.128C156.879 201.301 159.948 204.37 159.948 208.122V247.171C159.948 251.093 156.879 253.992 153.128 253.992Z" fill="#F2F7FF"/>
<path d="M201.216 253.992H176.149C172.398 253.992 169.328 250.922 169.328 247.171V208.122C169.328 204.37 172.398 201.301 176.149 201.301H201.216C204.967 201.301 208.036 204.37 208.036 208.122V247.171C208.036 251.093 204.967 253.992 201.216 253.992Z" fill="#F2F7FF"/>
<path d="M249.301 253.992H224.235C220.483 253.992 217.414 250.922 217.414 247.171V208.122C217.414 204.37 220.483 201.301 224.235 201.301H249.301C253.053 201.301 256.122 204.37 256.122 208.122V247.171C256.122 251.093 253.053 253.992 249.301 253.992Z" fill="#F2F7FF"/>
<path d="M52.8613 231.824C52.8613 235.576 49.9624 237.963 46.0405 237.963C40.5838 237.963 37.8555 234.041 37.8555 227.732C37.8555 220.74 41.6069 217.159 46.8931 217.159C48.5983 217.159 50.3035 217.5 51.4971 218.182L50.815 219.376C49.7919 218.694 48.2572 218.523 46.7225 218.523C42.1185 218.523 39.0491 221.593 39.0491 227.561C39.0491 228.243 39.0491 229.096 39.2196 229.948C40.0722 227.22 42.63 225.685 45.6994 225.685C50.1329 225.856 52.8613 228.243 52.8613 231.824ZM51.3266 231.995C51.3266 229.096 49.2803 227.22 45.6994 227.22C42.289 227.22 40.0722 229.437 40.0722 232.165C40.0722 234.552 42.1185 236.94 45.8699 236.94C49.1098 236.769 51.3266 234.893 51.3266 231.995Z" fill="#464DEB"/>
<path d="M100.436 232.165H96.1731V237.792H94.6384V232.165H83.043V231.142L94.1268 217.33H95.832L84.9187 230.801H94.809V225.856H96.1731V230.801H100.436V232.165Z" fill="#464DEB"/>
<path d="M150.058 240.862C150.058 241.032 146.136 241.373 141.191 241.373C136.246 241.373 132.324 241.203 132.324 240.862C132.324 240.691 136.246 240.35 141.191 240.35C145.966 240.35 150.058 240.521 150.058 240.862Z" fill="#464DEB"/>
<path d="M17.3933 148.439C19.6535 148.439 21.4858 146.607 21.4858 144.347C21.4858 142.087 19.6535 140.254 17.3933 140.254C15.1331 140.254 13.3008 142.087 13.3008 144.347C13.3008 146.607 15.1331 148.439 17.3933 148.439Z" fill="#B9BCE4"/>
<path d="M33.7631 144.347C33.7631 146.734 31.8874 148.439 29.6706 148.439C27.2833 148.439 25.5781 146.564 25.5781 144.347C25.5781 141.96 27.4538 140.254 29.6706 140.254C31.8874 140.254 33.7631 142.13 33.7631 144.347Z" fill="#B9BCE4"/>
<path d="M41.2663 148.439C43.5266 148.439 45.3588 146.607 45.3588 144.347C45.3588 142.087 43.5266 140.254 41.2663 140.254C39.0061 140.254 37.1738 142.087 37.1738 144.347C37.1738 146.607 39.0061 148.439 41.2663 148.439Z" fill="#B9BCE4"/>
<g opacity="0.5">
<path d="M276.243 156.113C276.243 156.283 214.514 156.624 138.291 156.624C62.0684 156.624 0.339844 156.454 0.339844 156.113C0.339844 155.942 62.0684 155.601 138.291 155.601C214.514 155.601 276.243 155.942 276.243 156.113Z" fill="#B9BCE4"/>
</g>
<path d="M641.975 308.675H337.254C331.116 308.675 326 303.729 326 297.42V17.2544C326 11.1156 330.945 6 337.254 6H641.805C647.943 6 653.059 10.9451 653.059 17.2544V297.42C653.059 303.559 648.114 308.675 641.975 308.675Z" fill="white"/>
<path d="M350.897 26.9741C350.897 30.0434 348.339 32.6013 345.27 32.6013C342.2 32.6013 339.643 30.0434 339.643 26.9741C339.643 23.9047 342.2 21.3469 345.27 21.3469C348.339 21.3469 350.897 23.9047 350.897 26.9741Z" fill="#B9BCE4"/>
<path d="M361.639 32.6013C364.747 32.6013 367.266 30.0819 367.266 26.9741C367.266 23.8663 364.747 21.3469 361.639 21.3469C358.531 21.3469 356.012 23.8663 356.012 26.9741C356.012 30.0819 358.531 32.6013 361.639 32.6013Z" fill="#B9BCE4"/>
<path d="M378.18 32.6013C381.288 32.6013 383.807 30.0819 383.807 26.9741C383.807 23.8663 381.288 21.3469 378.18 21.3469C375.072 21.3469 372.553 23.8663 372.553 26.9741C372.553 30.0819 375.072 32.6013 378.18 32.6013Z" fill="#B9BCE4"/>
<g opacity="0.5">
<path d="M653.059 43.003C653.059 43.1736 579.906 43.5146 489.53 43.5146C399.153 43.5146 326 43.3441 326 43.003C326 42.8325 399.153 42.4915 489.53 42.4915C579.906 42.4915 653.059 42.8325 653.059 43.003Z" fill="#B9BCE4"/>
</g>
<path d="M517.154 131.333H510.674V95.694C510.674 87.3385 503.853 80.5176 495.498 80.5176C487.142 80.5176 480.322 87.3385 480.322 95.694V131.333H473.842V95.694C473.842 83.7575 483.561 73.8673 495.668 73.8673C507.775 73.8673 517.495 83.587 517.495 95.694V131.333H517.154Z" fill="#FF725E"/>
<path d="M517.154 131.333H510.674V95.694C510.674 87.3385 503.853 80.5176 495.498 80.5176C487.142 80.5176 480.322 87.3385 480.322 95.694V131.333H473.842V95.694C473.842 83.7575 483.561 73.8673 495.668 73.8673C507.775 73.8673 517.495 83.587 517.495 95.694V131.333H517.154Z" fill="#464DEB"/>
<path d="M520.906 153.16H469.92C467.874 153.16 465.998 151.454 465.998 149.238V119.226C465.998 117.18 467.703 115.304 469.92 115.304H520.906C522.952 115.304 524.828 117.009 524.828 119.226V149.238C524.828 151.284 523.123 153.16 520.906 153.16Z" fill="#464DEB"/>
<g opacity="0.5">
<g opacity="0.3">
<path d="M500.273 129.287C500.273 126.558 498.056 124.342 495.328 124.342C492.6 124.342 490.383 126.558 490.383 129.287C490.383 131.503 491.918 133.379 493.964 134.061V141.394H496.692V134.061C498.909 133.379 500.273 131.674 500.273 129.287Z" fill="white"/>
</g>
</g>
<path d="M469.239 149.579C469.068 149.579 469.068 143.269 469.068 135.596C469.068 127.922 469.239 121.613 469.239 121.613C469.409 121.613 469.409 127.922 469.409 135.596C469.409 143.269 469.409 149.579 469.239 149.579Z" fill="#FAFAFA"/>
<path d="M491.577 135.596C491.577 135.596 491.406 135.596 491.065 135.255C490.724 135.084 490.213 134.573 489.872 133.891C489.019 132.697 488.166 130.48 488.678 128.093C489.189 125.706 490.895 124.171 492.259 123.489C492.941 123.148 493.623 122.977 493.964 122.977C494.305 122.977 494.646 122.977 494.646 122.977C494.646 123.148 493.794 123.148 492.429 123.83C491.236 124.512 489.53 126.047 489.019 128.263C488.507 130.48 489.189 132.527 490.042 133.72C490.895 135.084 491.747 135.596 491.577 135.596Z" fill="#FAFAFA"/>
<path d="M582.634 219.151H401.882C393.185 219.151 386.023 211.989 386.023 203.293V201.417C386.023 192.72 393.185 185.559 401.882 185.559H582.634C591.331 185.559 598.492 192.72 598.492 201.417V203.293C598.492 211.989 591.331 219.151 582.634 219.151Z" fill="#F2F7FF"/>
<path d="M584.169 265.362H403.417C394.72 265.362 387.559 258.2 387.559 249.504V247.628C387.559 238.932 394.72 231.77 403.417 231.77H584.169C592.866 231.77 600.028 238.932 600.028 247.628V249.504C600.028 258.2 592.866 265.362 584.169 265.362Z" fill="#F2F7FF"/>
<path d="M419.617 201.928V196.983H421.663V201.758C421.663 203.463 422.346 204.145 423.539 204.145C424.733 204.145 425.415 203.463 425.415 201.758V196.983H427.461V201.928C427.461 204.486 425.926 205.85 423.539 205.85C420.981 206.021 419.617 204.486 419.617 201.928Z" fill="#B9BCE4"/>
<path d="M428.656 205.168L429.338 203.804C430.02 204.145 430.873 204.486 431.726 204.486C432.578 204.486 432.919 204.316 432.919 203.804C432.919 202.781 428.827 203.804 428.827 201.076C428.827 199.882 430.02 198.859 431.896 198.859C432.749 198.859 433.772 199.03 434.454 199.371L433.772 200.735C433.09 200.394 432.408 200.223 431.896 200.223C431.044 200.223 430.702 200.564 430.702 200.905C430.702 202.099 434.795 200.905 434.795 203.634C434.795 204.827 433.601 205.68 431.555 205.68C430.532 205.85 429.338 205.509 428.656 205.168Z" fill="#B9BCE4"/>
<path d="M442.468 202.952H437.352C437.523 203.804 438.205 204.316 439.228 204.316C439.91 204.316 440.422 204.145 440.933 203.634L441.956 204.827C441.274 205.509 440.422 205.85 439.228 205.85C436.841 205.85 435.477 204.316 435.477 202.44C435.477 200.394 437.011 199.03 439.058 199.03C441.104 199.03 442.468 200.394 442.468 202.44C442.468 202.611 442.468 202.781 442.468 202.952ZM437.352 201.928H440.592C440.422 201.076 439.74 200.564 438.887 200.564C438.205 200.394 437.523 201.076 437.352 201.928Z" fill="#B9BCE4"/>
<path d="M447.923 199.03V200.905C447.752 200.905 447.582 200.905 447.411 200.905C446.388 200.905 445.706 201.417 445.706 202.781V206.021H443.83V199.371H445.706V200.223C446.217 199.371 446.899 199.03 447.923 199.03Z" fill="#B9BCE4"/>
<path d="M455.939 201.928V205.85H454.064V202.27C454.064 201.246 453.552 200.735 452.699 200.735C451.847 200.735 451.165 201.246 451.165 202.611V205.85H449.289V199.2H451.165V200.053C451.676 199.541 452.529 199.2 453.382 199.2C454.746 199.03 455.939 199.882 455.939 201.928Z" fill="#B9BCE4"/>
<path d="M463.611 201.928V205.68H461.735V204.827C461.394 205.509 460.712 205.68 459.689 205.68C458.154 205.68 457.131 204.827 457.131 203.634C457.131 202.44 457.983 201.587 460.03 201.587H461.564C461.564 200.735 461.053 200.223 460.03 200.223C459.348 200.223 458.666 200.394 458.154 200.905L457.472 199.541C458.154 199.03 459.348 198.689 460.371 198.689C462.417 199.03 463.611 199.882 463.611 201.928ZM461.735 203.634V202.952H460.371C459.518 202.952 459.177 203.293 459.177 203.804C459.177 204.316 459.518 204.657 460.2 204.657C460.882 204.657 461.564 204.316 461.735 203.634Z" fill="#B9BCE4"/>
<path d="M476.743 201.928V205.85H474.867V202.27C474.867 201.246 474.355 200.735 473.673 200.735C472.821 200.735 472.139 201.246 472.139 202.44V205.85H470.092V202.27C470.092 201.246 469.581 200.735 468.899 200.735C468.046 200.735 467.364 201.246 467.364 202.44V205.85H465.488V199.2H467.364V200.053C467.876 199.541 468.558 199.2 469.41 199.2C470.263 199.2 471.115 199.541 471.627 200.223C472.139 199.541 472.991 199.2 474.014 199.2C475.549 199.03 476.743 199.882 476.743 201.928Z" fill="#B9BCE4"/>
<path d="M485.097 202.952H479.981C480.152 203.804 480.834 204.316 481.857 204.316C482.539 204.316 483.051 204.145 483.562 203.634L484.585 204.827C483.903 205.509 483.051 205.85 481.857 205.85C479.47 205.85 478.105 204.316 478.105 202.44C478.105 200.394 479.64 199.03 481.686 199.03C483.733 199.03 485.097 200.394 485.097 202.44C485.097 202.611 485.097 202.781 485.097 202.952ZM479.981 201.928H483.221C483.051 201.076 482.369 200.564 481.516 200.564C480.834 200.394 480.152 201.076 479.981 201.928Z" fill="#B9BCE4"/>
<path d="M497.886 202.44C497.886 204.657 496.863 206.021 495.328 206.021C494.475 206.021 493.964 205.68 493.623 204.998C493.111 205.68 492.429 206.021 491.576 206.021C490.042 206.021 488.678 204.827 488.678 202.952C488.678 201.076 489.871 199.882 491.576 199.882C492.429 199.882 493.111 200.223 493.452 200.735V200.053H495.157V204.145C495.157 204.827 495.498 204.998 495.839 204.998C496.351 204.998 496.692 204.316 496.692 202.952C496.692 200.394 494.816 198.689 492.088 198.689C489.36 198.689 487.484 200.564 487.484 203.122C487.484 205.85 489.36 207.726 492.088 207.726C492.941 207.726 493.793 207.556 494.475 207.215L494.816 208.408C494.134 208.749 492.941 209.09 491.917 209.09C488.337 209.09 485.949 206.703 485.949 203.293C485.949 200.053 488.337 197.665 491.917 197.665C495.498 196.983 497.886 199.2 497.886 202.44ZM493.452 202.781C493.452 201.758 492.77 201.076 491.917 201.076C491.065 201.076 490.383 201.758 490.383 202.781C490.383 203.804 491.065 204.486 491.917 204.486C492.77 204.486 493.452 203.804 493.452 202.781Z" fill="#B9BCE4"/>
<path d="M510.676 201.928V205.85H508.8V202.27C508.8 201.246 508.288 200.735 507.606 200.735C506.754 200.735 506.072 201.246 506.072 202.44V205.85H504.196V202.27C504.196 201.246 503.684 200.735 503.002 200.735C502.15 200.735 501.468 201.246 501.468 202.44V205.85H499.592V199.2H501.468V200.053C501.979 199.541 502.661 199.2 503.514 199.2C504.366 199.2 505.219 199.541 505.731 200.223C506.242 199.541 507.095 199.2 508.118 199.2C509.482 199.03 510.676 199.882 510.676 201.928Z" fill="#B9BCE4"/>
<path d="M518.349 201.928V205.68H516.473V204.827C516.132 205.509 515.45 205.68 514.427 205.68C512.892 205.68 511.869 204.827 511.869 203.634C511.869 202.44 512.722 201.587 514.768 201.587H516.303C516.303 200.735 515.791 200.223 514.768 200.223C514.086 200.223 513.404 200.394 512.892 200.905L512.21 199.541C512.892 199.03 514.086 198.689 515.109 198.689C517.155 199.03 518.349 199.882 518.349 201.928ZM516.473 203.634V202.952H515.109C514.256 202.952 513.915 203.293 513.915 203.804C513.915 204.316 514.256 204.657 514.938 204.657C515.621 204.657 516.132 204.316 516.473 203.634Z" fill="#B9BCE4"/>
<path d="M519.885 197.154C519.885 196.472 520.396 196.131 521.078 196.131C521.76 196.131 522.272 196.642 522.272 197.154C522.272 197.836 521.76 198.348 521.078 198.348C520.396 198.348 519.885 197.665 519.885 197.154ZM520.055 199.03H521.931V205.68H520.055V199.03Z" fill="#B9BCE4"/>
<path d="M523.805 196.472H525.68V205.68H523.805V196.472Z" fill="#B9BCE4"/>
<path d="M527.215 204.657C527.215 203.975 527.726 203.463 528.409 203.463C529.091 203.463 529.602 203.975 529.602 204.657C529.602 205.339 529.091 205.85 528.409 205.85C527.726 205.85 527.215 205.339 527.215 204.657Z" fill="#B9BCE4"/>
<path d="M530.285 202.44C530.285 200.394 531.82 199.03 534.037 199.03C535.401 199.03 536.594 199.712 537.106 200.735L535.571 201.587C535.23 200.905 534.719 200.735 534.037 200.735C533.014 200.735 532.331 201.417 532.331 202.611C532.331 203.804 533.184 204.486 534.037 204.486C534.719 204.486 535.23 204.145 535.571 203.634L537.106 204.486C536.594 205.509 535.571 206.192 534.037 206.192C531.82 205.85 530.285 204.486 530.285 202.44Z" fill="#B9BCE4"/>
<path d="M537.617 202.44C537.617 200.394 539.152 199.03 541.369 199.03C543.585 199.03 545.12 200.394 545.12 202.44C545.12 204.486 543.585 205.85 541.369 205.85C539.152 205.85 537.617 204.486 537.617 202.44ZM542.903 202.44C542.903 201.246 542.221 200.564 541.198 200.564C540.175 200.564 539.493 201.246 539.493 202.44C539.493 203.634 540.175 204.316 541.198 204.316C542.221 204.316 542.903 203.634 542.903 202.44Z" fill="#B9BCE4"/>
<path d="M557.568 201.928V205.85H555.693V202.27C555.693 201.246 555.181 200.735 554.499 200.735C553.646 200.735 552.964 201.246 552.964 202.44V205.85H551.088V202.27C551.088 201.246 550.577 200.735 549.895 200.735C549.042 200.735 548.36 201.246 548.36 202.44V205.85H546.484V199.2H548.36V200.053C548.872 199.541 549.554 199.2 550.406 199.2C551.259 199.2 552.112 199.541 552.623 200.223C553.135 199.541 553.987 199.2 555.01 199.2C556.375 199.03 557.568 199.882 557.568 201.928Z" fill="#B9BCE4"/>
<path d="M445.534 248.651L448.774 250.356L447.41 252.744L444.17 250.868V254.449H441.442V250.868L438.202 252.744L436.838 250.356L440.078 248.651L436.838 246.946L438.202 244.559L441.442 246.434V242.854H444.17V246.434L447.41 244.559L448.774 246.946L445.534 248.651Z" fill="#B9BCE4"/>
<path d="M458.663 248.651L461.903 250.356L460.539 252.744L457.299 250.868V254.449H454.571V250.868L451.331 252.744L449.967 250.356L453.207 248.651L449.967 246.946L451.331 244.559L454.571 246.434V242.854H457.299V246.434L460.539 244.559L461.903 246.946L458.663 248.651Z" fill="#B9BCE4"/>
<path d="M471.966 248.651L475.206 250.356L473.842 252.744L470.602 250.868V254.449H467.874V250.868L464.634 252.744L463.27 250.356L466.509 248.651L463.27 246.946L464.634 244.559L467.874 246.434V242.854H470.602V246.434L473.842 244.559L475.206 246.946L471.966 248.651Z" fill="#B9BCE4"/>
<path d="M485.095 248.651L488.335 250.356L486.971 252.744L483.731 250.868V254.449H481.002V250.868L477.763 252.744L476.398 250.356L479.638 248.651L476.398 246.946L477.763 244.559L481.002 246.434V242.854H483.731V246.434L486.971 244.559L488.335 246.946L485.095 248.651Z" fill="#B9BCE4"/>
<path d="M498.226 248.651L501.466 250.356L500.102 252.744L496.862 250.868V254.449H494.133V250.868L490.893 252.744L489.529 250.356L492.769 248.651L489.529 246.946L490.893 244.559L494.133 246.434V242.854H496.862V246.434L500.102 244.559L501.466 246.946L498.226 248.651Z" fill="#B9BCE4"/>
<path d="M511.355 248.651L514.595 250.356L513.23 252.744L509.991 250.868V254.449H507.262V250.868L504.022 252.744L502.658 250.356L505.898 248.651L502.658 246.946L504.022 244.559L507.262 246.434V242.854H509.991V246.434L513.23 244.559L514.595 246.946L511.355 248.651Z" fill="#B9BCE4"/>
<path d="M524.486 248.651L527.726 250.356L526.361 252.744L523.121 250.868V254.449H520.393V250.868L517.153 252.744L515.789 250.356L519.029 248.651L515.789 246.946L517.153 244.559L520.393 246.434V242.854H523.121V246.434L526.361 244.559L527.726 246.946L524.486 248.651Z" fill="#B9BCE4"/>
<path d="M537.617 248.651L540.856 250.356L539.492 252.744L536.252 250.868V254.449H533.524V250.868L530.284 252.744L528.92 250.356L532.16 248.651L528.92 246.946L530.284 244.559L533.524 246.434V242.854H536.252V246.434L539.492 244.559L540.856 246.946L537.617 248.651Z" fill="#B9BCE4"/>
<path d="M423.51 642.065L369.263 604.773C364.264 601.266 361.073 594.892 361.073 587.986V504.158C361.073 499.908 358.201 496.508 354.585 496.508H349.479C345.863 496.508 342.991 499.908 342.991 504.158V587.986C342.991 594.892 339.906 601.266 334.8 604.773L280.554 642.065C278.427 643.552 279.277 647.377 281.724 647.377H284.702C292.254 647.377 299.7 645.146 306.294 641.002L347.884 614.76C350.436 613.166 353.627 613.166 356.074 614.76L397.663 641.002C404.364 645.252 411.703 647.377 419.255 647.377H422.233C424.786 647.377 425.637 643.552 423.51 642.065Z" fill="#B9BCE4"/>
<path d="M228.435 371.032C228.435 371.032 202.269 364.232 199.291 383.782C199.291 383.782 200.78 387.182 205.46 381.869C210.14 376.557 211.417 386.757 228.435 386.757V371.032Z" fill="url(#paint0_linear)"/>
<path d="M321.078 392.387H164.082C162.806 392.387 161.742 391.325 161.742 390.05V387.181C161.742 385.906 162.806 384.844 164.082 384.844H321.078C322.355 384.844 323.418 385.906 323.418 387.181V390.05C323.418 391.325 322.355 392.387 321.078 392.387Z" fill="#313667"/>
<path d="M362.137 270.949H343.311V249.806L343.63 249.487C348.948 244.706 356.5 244.706 361.712 249.487L362.031 249.806V270.949H362.137Z" fill="url(#paint1_linear)"/>
<path d="M681.66 402.056H21.3401C20.0637 402.056 19 400.993 19 399.718V394.619C19 393.344 20.0637 392.281 21.3401 392.281H681.66C682.936 392.281 684 393.344 684 394.619V399.718C684 401.1 682.936 402.056 681.66 402.056Z" fill="#B9BCE4"/>
<path d="M502.752 388.563L502.859 388.775C503.497 390.475 502.22 392.388 500.412 392.388H473.395C471.693 392.388 470.204 391.325 469.672 389.731L464.992 375.707L494.987 377.194C498.604 377.407 501.582 380.063 502.114 383.569L502.752 388.563Z" fill="#313667"/>
<path d="M301.295 583.311L305.975 608.81H287.468L278.107 571.624L301.295 583.311Z" fill="url(#paint2_linear)"/>
<path d="M286.192 603.922C286.192 603.922 299.914 605.835 303.849 597.654C303.849 597.654 307.997 602.966 313.422 611.891C314.592 613.909 314.06 616.459 312.146 617.84C306.189 621.984 292.255 631.227 271.301 643.658C268.536 645.252 265.026 643.658 264.6 640.471C263.962 635.052 267.366 624.428 286.192 603.922Z" fill="#3D427B"/>
<path d="M404.577 583.629L399.791 609.128H418.299L427.659 571.942L404.577 583.629Z" fill="url(#paint3_linear)"/>
<path d="M419.575 604.135C419.575 604.135 405.854 606.047 401.918 597.866C401.918 597.866 397.77 603.179 392.345 612.103C391.175 614.122 391.707 616.672 393.622 618.053C399.578 622.196 413.512 631.44 434.466 643.871C437.232 645.464 440.742 643.871 441.167 640.683C441.806 635.371 438.508 624.746 419.575 604.135Z" fill="#3D427B"/>
<path d="M433.188 445.723C432.869 445.298 432.444 444.979 432.125 444.554C389.791 397.593 315.76 397.593 273.427 444.554C273.108 444.979 272.682 445.298 272.363 445.723C263.216 456.135 258.11 469.309 257.897 483.121C257.472 502.777 260.237 536.456 276.618 583.311H301.507C301.507 583.311 290.658 515.739 296.402 493.108H352.882H409.362C415.106 515.739 404.257 583.311 404.257 583.311H429.146C445.421 536.35 448.186 502.67 447.867 483.121C447.441 469.309 442.23 456.028 433.188 445.723Z" fill="#3D427B"/>
<path d="M292.041 474.515C292.041 474.515 301.508 447.529 352.244 447.529C403.087 447.529 413.724 476.959 413.724 476.959L292.041 474.515Z" fill="#313667"/>
<path d="M332.46 225.794L322.356 227.494C316.186 228.557 310.23 224.413 309.166 218.145L307.996 211.239C306.933 205.076 311.081 199.127 317.357 198.064L327.461 196.364L332.46 225.794Z" fill="url(#paint4_linear)"/>
<path d="M374.049 225.794L384.154 227.494C390.323 228.557 396.279 224.413 397.343 218.145L398.513 211.239C399.577 205.076 395.428 199.127 389.153 198.064L379.048 196.364L374.049 225.794Z" fill="url(#paint5_linear)"/>
<path d="M475.203 370.926C475.203 370.926 501.369 364.126 504.347 383.675C504.347 383.675 502.858 387.075 498.178 381.763C493.498 376.451 492.222 386.65 475.203 386.65V370.926Z" fill="url(#paint6_linear)"/>
<path d="M372.242 151.741C372.242 151.741 357.989 160.453 338.524 165.553C324.058 169.272 314.591 184.252 319.697 211.026C324.803 237.8 335.865 251.399 351.819 251.399C367.774 251.399 381.602 242.262 386.708 207.839C391.813 173.415 395.004 171.184 396.28 166.19C398.195 158.753 393.621 154.716 386.495 159.391C377.135 165.553 390.111 143.879 372.242 151.741Z" fill="url(#paint7_linear)"/>
<path d="M458.611 364.02C439.677 354.352 418.404 299.316 405.959 281.786C401.811 275.942 394.472 271.48 386.601 268.186C365.009 259.049 340.438 259.049 318.739 268.186C310.868 271.48 303.529 275.942 299.381 281.786C286.936 299.316 265.663 354.352 246.73 364.02C242.581 366.145 238.433 366.995 235.029 367.207C229.924 367.526 225.988 371.67 225.988 376.769V380.913C225.988 386.331 230.456 390.688 235.88 390.475C251.41 389.838 282.15 383.357 305.763 344.789C305.763 344.789 297.36 390.156 299.062 414.699C299.381 419.055 303.423 422.136 307.677 421.286C318.314 419.161 338.311 415.549 352.67 415.549C367.136 415.549 388.728 420.224 400.109 422.986C404.47 424.049 408.831 420.861 408.938 416.293C410.001 392.175 399.684 349.57 399.684 349.57C423.723 388.988 455.313 392.387 470.417 391.431C475.416 391.112 479.352 386.863 479.352 381.869V376.769C479.352 371.67 475.416 367.526 470.311 367.207C466.907 366.995 462.759 366.145 458.611 364.02Z" fill="url(#paint8_linear)"/>
<path d="M352.776 291.348C352.776 291.348 280.979 290.711 284.17 342.346C287.361 393.981 310.336 397.169 352.776 397.169C395.216 397.169 418.191 393.981 421.382 342.346C424.573 290.711 352.776 291.348 352.776 291.348Z" fill="white"/>
<path d="M404.151 517.014H301.401C291.403 517.014 283.213 508.833 283.213 498.846V487.371C283.213 474.728 298.955 469.203 323.526 469.203H378.091C408.193 469.203 422.446 474.515 422.446 487.371V498.846C422.34 508.939 414.149 517.014 404.151 517.014Z" fill="white"/>
<path d="M391.493 203.589C390.323 203.164 389.579 201.889 389.898 200.614C391.174 195.514 393.514 182.659 386.601 172.884C380.538 164.278 368.731 159.922 351.393 159.922C337.566 159.922 327.461 163.747 321.505 171.29C313.74 181.171 314.91 194.877 315.761 200.189C315.973 201.464 315.123 202.633 313.846 202.952C312.463 203.27 311.081 202.42 310.762 200.933C309.804 194.877 308.528 179.577 317.569 168.103C324.483 159.285 335.864 154.822 351.287 154.822C370.327 154.822 383.516 159.922 390.536 169.909C398.62 181.384 396.067 195.833 394.578 201.677C394.365 203.27 392.876 204.12 391.493 203.589Z" fill="url(#paint9_linear)"/>
<path d="M352.351 381.869C347.777 381.869 344.054 385.588 344.054 390.05C343.842 419.905 343.629 486.096 343.629 486.096C343.629 489.921 346.501 493.108 350.117 493.108H354.159C357.776 493.108 360.647 490.027 360.647 486.096V390.156C360.647 385.588 356.925 381.869 352.351 381.869Z" fill="#B9BCE4"/>
<path d="M470.311 367.313C466.801 367.101 462.759 366.251 458.611 364.126C439.677 354.458 418.404 299.422 405.959 281.892C401.811 276.048 394.472 271.586 386.601 268.292C376.283 263.936 365.328 261.705 354.372 261.493C354.159 261.493 354.053 261.493 353.84 261.493C353.415 261.493 353.096 261.493 352.67 261.493C352.245 261.493 351.926 261.493 351.5 261.493C351.287 261.493 351.181 261.493 350.968 261.493C340.013 261.705 329.057 263.936 318.739 268.292C310.868 271.586 303.529 276.048 299.381 281.892C286.936 299.422 265.663 354.458 246.73 364.126C242.581 366.251 238.433 367.101 235.029 367.313C229.924 367.632 225.988 371.776 225.988 376.875C225.988 376.875 258.43 388.987 291.935 309.941L302.146 291.348C302.146 291.348 315.868 269.674 352.67 268.717C389.473 269.78 403.194 291.348 403.194 291.348L413.405 309.941C446.91 388.987 479.352 376.875 479.352 376.875C479.458 371.776 475.416 367.632 470.311 367.313Z" fill="url(#paint10_linear)"/>
<path d="M47.1875 561.424C49.6339 564.08 52.0803 566.736 54.5268 569.393V402.056H47.1875V561.424Z" fill="url(#paint11_linear)"/>
<path d="M651.24 402.056H643.9V646.527H651.24V402.056Z" fill="url(#paint12_linear)"/>
<defs>
<linearGradient id="paint0_linear" x1="199.316" y1="378.353" x2="228.451" y2="378.353" gradientUnits="userSpaceOnUse">
<stop stop-color="#FFD7B7"/>
<stop offset="0.356" stop-color="#FFD1B1"/>
<stop offset="0.8428" stop-color="#FFBFA2"/>
<stop offset="1" stop-color="#FFB89B"/>
</linearGradient>
<linearGradient id="paint1_linear" x1="353.483" y1="277.642" x2="352.186" y2="247.14" gradientUnits="userSpaceOnUse">
<stop stop-color="#FFD7B7"/>
<stop offset="0.356" stop-color="#FFD1B1"/>
<stop offset="0.8428" stop-color="#FFBFA2"/>
<stop offset="1" stop-color="#FFB89B"/>
</linearGradient>
<linearGradient id="paint2_linear" x1="284.102" y1="569.913" x2="303.199" y2="618.806" gradientUnits="userSpaceOnUse">
<stop stop-color="#FFD7B7"/>
<stop offset="0.356" stop-color="#FFD1B1"/>
<stop offset="0.8428" stop-color="#FFBFA2"/>
<stop offset="1" stop-color="#FFB89B"/>
</linearGradient>
<linearGradient id="paint3_linear" x1="418.048" y1="568.279" x2="408.032" y2="617.789" gradientUnits="userSpaceOnUse">
<stop stop-color="#FFD7B7"/>
<stop offset="0.356" stop-color="#FFD1B1"/>
<stop offset="0.8428" stop-color="#FFBFA2"/>
<stop offset="1" stop-color="#FFB89B"/>
</linearGradient>
<linearGradient id="paint4_linear" x1="307.817" y1="212.031" x2="332.469" y2="212.031" gradientUnits="userSpaceOnUse">
<stop stop-color="#FF71B8"/>
<stop offset="1" stop-color="#FFB5A8"/>
</linearGradient>
<linearGradient id="paint5_linear" x1="374.087" y1="212.031" x2="398.739" y2="212.031" gradientUnits="userSpaceOnUse">
<stop stop-color="#FF71B8"/>
<stop offset="1" stop-color="#FFB5A8"/>
</linearGradient>
<linearGradient id="paint6_linear" x1="509.3" y1="377.792" x2="465.475" y2="378.431" gradientUnits="userSpaceOnUse">
<stop stop-color="#FFD7B7"/>
<stop offset="0.356" stop-color="#FFD1B1"/>
<stop offset="0.8428" stop-color="#FFBFA2"/>
<stop offset="1" stop-color="#FFB89B"/>
</linearGradient>
<linearGradient id="paint7_linear" x1="354.035" y1="130.117" x2="362.745" y2="259.671" gradientUnits="userSpaceOnUse">
<stop stop-color="#8C7DFF"/>
<stop offset="0.00593132" stop-color="#8B7CFC"/>
<stop offset="0.0992527" stop-color="#8068D7"/>
<stop offset="0.1987" stop-color="#7757B7"/>
<stop offset="0.3071" stop-color="#6F4A9D"/>
<stop offset="0.426" stop-color="#693F89"/>
<stop offset="0.5607" stop-color="#65387B"/>
<stop offset="0.7246" stop-color="#633373"/>
<stop offset="1" stop-color="#623270"/>
</linearGradient>
<linearGradient id="paint8_linear" x1="359.525" y1="243.133" x2="349.225" y2="450.656" gradientUnits="userSpaceOnUse">
<stop stop-color="#8C7DFF"/>
<stop offset="1" stop-color="#68C3C1"/>
</linearGradient>
<linearGradient id="paint9_linear" x1="310.215" y1="179.397" x2="396.341" y2="179.397" gradientUnits="userSpaceOnUse">
<stop stop-color="#FF71B8"/>
<stop offset="1" stop-color="#FFB5A8"/>
</linearGradient>
<linearGradient id="paint10_linear" x1="360.618" y1="229.324" x2="353.107" y2="370.321" gradientUnits="userSpaceOnUse">
<stop stop-color="#8C7DFF"/>
<stop offset="1" stop-color="#68C3C1"/>
</linearGradient>
<linearGradient id="paint11_linear" x1="50.8571" y1="402.056" x2="50.8571" y2="569.393" gradientUnits="userSpaceOnUse">
<stop stop-color="#B9BCE4"/>
<stop offset="1" stop-color="#F2F7FF" stop-opacity="0"/>
</linearGradient>
<linearGradient id="paint12_linear" x1="647.57" y1="402.056" x2="647.57" y2="646.527" gradientUnits="userSpaceOnUse">
<stop stop-color="#B9BCE4"/>
<stop offset="1" stop-color="#F2F7FF" stop-opacity="0"/>
</linearGradient>
</defs>
</svg>
